<mxfile host="app.diagrams.net" agent="Mozilla/5.0 (Windows NT 10.0; Win64; x64) AppleWebKit/537.36 (KHTML, like Gecko) Chrome/130.0.0.0 Safari/537.36" version="24.8.4" pages="5">
  <diagram id="dmb31zrkckhpgHorpXxm" name="thiết kế hệ thống">
    <mxGraphModel grid="1" page="1" gridSize="10" guides="1" tooltips="1" connect="1" arrows="1" fold="1" pageScale="1" pageWidth="850" pageHeight="1100" math="0" shadow="0">
      <root>
        <mxCell id="0" />
        <mxCell id="1" parent="0" />
        <mxCell id="tQMDJWdNe0vZUp2bcSFk-1" value="" style="rounded=0;whiteSpace=wrap;html=1;" vertex="1" parent="1">
          <mxGeometry x="40" y="100" width="190" height="240" as="geometry" />
        </mxCell>
        <mxCell id="tQMDJWdNe0vZUp2bcSFk-2" value="&lt;font size=&quot;1&quot; style=&quot;&quot;&gt;&lt;b style=&quot;font-size: 16px;&quot;&gt;source&lt;/b&gt;&lt;/font&gt;" style="text;html=1;align=center;verticalAlign=middle;whiteSpace=wrap;rounded=0;" vertex="1" parent="1">
          <mxGeometry x="90" y="70" width="60" height="30" as="geometry" />
        </mxCell>
        <mxCell id="tQMDJWdNe0vZUp2bcSFk-3" value="&lt;font style=&quot;font-size: 16px;&quot;&gt;https://vnexpress.net/oto-xe-may/v-bike&lt;/font&gt;" style="text;html=1;align=center;verticalAlign=middle;whiteSpace=wrap;rounded=0;" vertex="1" parent="1">
          <mxGeometry x="100" y="205" width="80" height="30" as="geometry" />
        </mxCell>
        <mxCell id="tQMDJWdNe0vZUp2bcSFk-4" value="" style="rounded=1;whiteSpace=wrap;html=1;" vertex="1" parent="1">
          <mxGeometry x="280" y="70" width="760" height="610" as="geometry" />
        </mxCell>
        <mxCell id="tQMDJWdNe0vZUp2bcSFk-5" value="&lt;font size=&quot;1&quot; style=&quot;&quot;&gt;&lt;b style=&quot;font-size: 17px;&quot;&gt;Staging&lt;/b&gt;&lt;/font&gt;" style="text;html=1;align=center;verticalAlign=middle;whiteSpace=wrap;rounded=0;" vertex="1" parent="1">
          <mxGeometry x="620" y="70" width="60" height="30" as="geometry" />
        </mxCell>
        <mxCell id="tQMDJWdNe0vZUp2bcSFk-6" value="Module1:&lt;br&gt;web scraping&lt;br&gt;transform&amp;nbsp;&lt;br&gt;&amp;lt;tên file code&amp;gt;" style="shape=module;align=left;spacingLeft=20;align=center;verticalAlign=top;whiteSpace=wrap;html=1;" vertex="1" parent="1">
          <mxGeometry x="410" y="100" width="145" height="70" as="geometry" />
        </mxCell>
        <mxCell id="tQMDJWdNe0vZUp2bcSFk-7" value="" style="shape=cylinder3;whiteSpace=wrap;html=1;boundedLbl=1;backgroundOutline=1;size=15;" vertex="1" parent="1">
          <mxGeometry x="850" y="120" width="60" height="80" as="geometry" />
        </mxCell>
        <mxCell id="tQMDJWdNe0vZUp2bcSFk-8" value="Db controller:&lt;br&gt;- control tables&lt;div&gt;- files table&lt;/div&gt;&lt;div&gt;- logs table&amp;nbsp;&lt;/div&gt;&lt;div&gt;-config table&lt;/div&gt;" style="text;strokeColor=none;fillColor=none;align=left;verticalAlign=middle;spacingLeft=4;spacingRight=4;overflow=hidden;points=[[0,0.5],[1,0.5]];portConstraint=eastwest;rotatable=0;whiteSpace=wrap;html=1;" vertex="1" parent="1">
          <mxGeometry x="830" y="200" width="120" height="90" as="geometry" />
        </mxCell>
        <mxCell id="tQMDJWdNe0vZUp2bcSFk-9" style="edgeStyle=orthogonalEdgeStyle;rounded=0;orthogonalLoop=1;jettySize=auto;html=1;" edge="1" parent="1" source="tQMDJWdNe0vZUp2bcSFk-10" target="tQMDJWdNe0vZUp2bcSFk-17">
          <mxGeometry relative="1" as="geometry" />
        </mxCell>
        <mxCell id="tQMDJWdNe0vZUp2bcSFk-10" value="Module 2 :&lt;div&gt;save data&lt;/div&gt;" style="shape=module;align=left;spacingLeft=20;align=center;verticalAlign=top;whiteSpace=wrap;html=1;" vertex="1" parent="1">
          <mxGeometry x="395" y="380" width="100" height="50" as="geometry" />
        </mxCell>
        <mxCell id="tQMDJWdNe0vZUp2bcSFk-11" style="edgeStyle=orthogonalEdgeStyle;rounded=0;orthogonalLoop=1;jettySize=auto;html=1;" edge="1" parent="1" source="tQMDJWdNe0vZUp2bcSFk-12" target="tQMDJWdNe0vZUp2bcSFk-10">
          <mxGeometry relative="1" as="geometry">
            <Array as="points">
              <mxPoint x="530" y="310" />
              <mxPoint x="445" y="310" />
            </Array>
          </mxGeometry>
        </mxCell>
        <mxCell id="tQMDJWdNe0vZUp2bcSFk-12" value="" style="shape=folder;fontStyle=1;spacingTop=10;tabWidth=40;tabHeight=14;tabPosition=left;html=1;whiteSpace=wrap;" vertex="1" parent="1">
          <mxGeometry x="510" y="195" width="40" height="35" as="geometry" />
        </mxCell>
        <mxCell id="tQMDJWdNe0vZUp2bcSFk-13" value="Temporary Storage : output/getDataWeb_vnex_YYYYMMDD.csv" style="text;html=1;align=left;verticalAlign=middle;whiteSpace=wrap;rounded=0;" vertex="1" parent="1">
          <mxGeometry x="370" y="230" width="360" height="25" as="geometry" />
        </mxCell>
        <mxCell id="tQMDJWdNe0vZUp2bcSFk-14" value="" style="shape=folder;fontStyle=1;spacingTop=10;tabWidth=40;tabHeight=14;tabPosition=left;html=1;whiteSpace=wrap;" vertex="1" parent="1">
          <mxGeometry x="730" y="290" width="40" height="35" as="geometry" />
        </mxCell>
        <mxCell id="tQMDJWdNe0vZUp2bcSFk-15" value="dataArchive/getDataWeb_vnex_YYYYMMDD.csv" style="text;html=1;align=center;verticalAlign=middle;whiteSpace=wrap;rounded=0;" vertex="1" parent="1">
          <mxGeometry x="590" y="325" width="310" height="30" as="geometry" />
        </mxCell>
        <mxCell id="tQMDJWdNe0vZUp2bcSFk-16" style="edgeStyle=orthogonalEdgeStyle;rounded=0;orthogonalLoop=1;jettySize=auto;html=1;" edge="1" parent="1" source="tQMDJWdNe0vZUp2bcSFk-17" target="tQMDJWdNe0vZUp2bcSFk-19">
          <mxGeometry relative="1" as="geometry">
            <Array as="points">
              <mxPoint x="620" y="460" />
              <mxPoint x="620" y="505" />
            </Array>
          </mxGeometry>
        </mxCell>
        <mxCell id="tQMDJWdNe0vZUp2bcSFk-17" value="" style="shape=cylinder3;whiteSpace=wrap;html=1;boundedLbl=1;backgroundOutline=1;size=15;" vertex="1" parent="1">
          <mxGeometry x="750" y="390" width="60" height="80" as="geometry" />
        </mxCell>
        <mxCell id="tQMDJWdNe0vZUp2bcSFk-18" value="Db staging:&lt;br&gt;staging table" style="text;html=1;align=center;verticalAlign=middle;whiteSpace=wrap;rounded=0;" vertex="1" parent="1">
          <mxGeometry x="735" y="470" width="90" height="30" as="geometry" />
        </mxCell>
        <mxCell id="tQMDJWdNe0vZUp2bcSFk-19" value="Module 3 :&lt;br&gt;-validate&lt;br&gt;-aggregation&lt;br&gt;-data cleaning&lt;br&gt;&lt;div&gt;-save data&lt;br&gt;&lt;div&gt;&lt;br&gt;&lt;/div&gt;&lt;/div&gt;" style="shape=module;align=left;spacingLeft=20;align=center;verticalAlign=top;whiteSpace=wrap;html=1;" vertex="1" parent="1">
          <mxGeometry x="395" y="460" width="115" height="80" as="geometry" />
        </mxCell>
        <mxCell id="tQMDJWdNe0vZUp2bcSFk-20" style="edgeStyle=orthogonalEdgeStyle;rounded=0;orthogonalLoop=1;jettySize=auto;html=1;" edge="1" parent="1" source="tQMDJWdNe0vZUp2bcSFk-21" target="tQMDJWdNe0vZUp2bcSFk-23">
          <mxGeometry relative="1" as="geometry" />
        </mxCell>
        <mxCell id="tQMDJWdNe0vZUp2bcSFk-21" value="" style="shape=cylinder3;whiteSpace=wrap;html=1;boundedLbl=1;backgroundOutline=1;size=15;" vertex="1" parent="1">
          <mxGeometry x="530" y="550" width="60" height="80" as="geometry" />
        </mxCell>
        <mxCell id="tQMDJWdNe0vZUp2bcSFk-22" value="Db new&lt;br&gt;-productAggregation table&lt;br&gt;not_newFact table&lt;br&gt;authorTable&lt;div&gt;categogyTable&lt;/div&gt;" style="text;html=1;align=center;verticalAlign=middle;whiteSpace=wrap;rounded=0;" vertex="1" parent="1">
          <mxGeometry x="440" y="630" width="240" height="90" as="geometry" />
        </mxCell>
        <mxCell id="tQMDJWdNe0vZUp2bcSFk-23" value="Module 4 :&lt;div&gt;-load data&lt;br&gt;-validate&lt;br&gt;-tranform&lt;/div&gt;" style="shape=module;align=left;spacingLeft=20;align=center;verticalAlign=top;whiteSpace=wrap;html=1;" vertex="1" parent="1">
          <mxGeometry x="755" y="550" width="115" height="70" as="geometry" />
        </mxCell>
        <mxCell id="tQMDJWdNe0vZUp2bcSFk-24" value="" style="rounded=1;whiteSpace=wrap;html=1;" vertex="1" parent="1">
          <mxGeometry x="1070" y="140" width="330" height="370" as="geometry" />
        </mxCell>
        <mxCell id="tQMDJWdNe0vZUp2bcSFk-25" value="" style="shape=cylinder3;whiteSpace=wrap;html=1;boundedLbl=1;backgroundOutline=1;size=15;" vertex="1" parent="1">
          <mxGeometry x="1190" y="220" width="60" height="80" as="geometry" />
        </mxCell>
        <mxCell id="tQMDJWdNe0vZUp2bcSFk-26" value="dbmart:&lt;br&gt;Product Table&lt;br&gt;not_news Table&lt;br&gt;authorTable&lt;br&gt;categogyTable" style="text;html=1;align=center;verticalAlign=middle;whiteSpace=wrap;rounded=0;" vertex="1" parent="1">
          <mxGeometry x="1130" y="290" width="190" height="110" as="geometry" />
        </mxCell>
        <mxCell id="tQMDJWdNe0vZUp2bcSFk-27" value="&lt;span style=&quot;font-size: 17px;&quot;&gt;&lt;b&gt;presentation&lt;/b&gt;&lt;/span&gt;" style="text;html=1;align=center;verticalAlign=middle;whiteSpace=wrap;rounded=0;" vertex="1" parent="1">
          <mxGeometry x="1160" y="110" width="60" height="30" as="geometry" />
        </mxCell>
        <mxCell id="tQMDJWdNe0vZUp2bcSFk-28" style="edgeStyle=orthogonalEdgeStyle;rounded=0;orthogonalLoop=1;jettySize=auto;html=1;entryX=0;entryY=0;entryDx=0;entryDy=15;entryPerimeter=0;" edge="1" parent="1" source="tQMDJWdNe0vZUp2bcSFk-3" target="tQMDJWdNe0vZUp2bcSFk-6">
          <mxGeometry relative="1" as="geometry">
            <Array as="points">
              <mxPoint x="288" y="220" />
              <mxPoint x="288" y="135" />
            </Array>
          </mxGeometry>
        </mxCell>
        <mxCell id="tQMDJWdNe0vZUp2bcSFk-29" style="edgeStyle=orthogonalEdgeStyle;rounded=0;orthogonalLoop=1;jettySize=auto;html=1;entryX=0;entryY=0;entryDx=0;entryDy=19.25;entryPerimeter=0;" edge="1" parent="1" source="tQMDJWdNe0vZUp2bcSFk-6" target="tQMDJWdNe0vZUp2bcSFk-12">
          <mxGeometry relative="1" as="geometry" />
        </mxCell>
        <mxCell id="tQMDJWdNe0vZUp2bcSFk-30" style="edgeStyle=orthogonalEdgeStyle;rounded=0;orthogonalLoop=1;jettySize=auto;html=1;entryX=0;entryY=0;entryDx=20;entryDy=0;entryPerimeter=0;" edge="1" parent="1" source="tQMDJWdNe0vZUp2bcSFk-12" target="tQMDJWdNe0vZUp2bcSFk-14">
          <mxGeometry relative="1" as="geometry" />
        </mxCell>
        <mxCell id="tQMDJWdNe0vZUp2bcSFk-31" style="edgeStyle=orthogonalEdgeStyle;rounded=0;orthogonalLoop=1;jettySize=auto;html=1;entryX=0;entryY=0;entryDx=0;entryDy=52.5;entryPerimeter=0;" edge="1" parent="1" source="tQMDJWdNe0vZUp2bcSFk-19" target="tQMDJWdNe0vZUp2bcSFk-21">
          <mxGeometry relative="1" as="geometry">
            <Array as="points">
              <mxPoint x="440" y="603" />
            </Array>
          </mxGeometry>
        </mxCell>
        <mxCell id="tQMDJWdNe0vZUp2bcSFk-32" style="edgeStyle=orthogonalEdgeStyle;rounded=0;orthogonalLoop=1;jettySize=auto;html=1;entryX=0;entryY=0.5;entryDx=0;entryDy=0;entryPerimeter=0;" edge="1" parent="1" source="tQMDJWdNe0vZUp2bcSFk-23" target="tQMDJWdNe0vZUp2bcSFk-25">
          <mxGeometry relative="1" as="geometry">
            <Array as="points">
              <mxPoint x="990" y="585" />
              <mxPoint x="990" y="260" />
            </Array>
          </mxGeometry>
        </mxCell>
        <mxCell id="tQMDJWdNe0vZUp2bcSFk-33" value="" style="rounded=1;whiteSpace=wrap;html=1;" vertex="1" parent="1">
          <mxGeometry x="1460" y="150" width="220" height="370" as="geometry" />
        </mxCell>
        <mxCell id="tQMDJWdNe0vZUp2bcSFk-34" value="&lt;span style=&quot;font-size: 17px;&quot;&gt;&lt;b&gt;tool access&lt;/b&gt;&lt;/span&gt;" style="text;html=1;align=center;verticalAlign=middle;whiteSpace=wrap;rounded=0;" vertex="1" parent="1">
          <mxGeometry x="1515" y="120" width="110" height="30" as="geometry" />
        </mxCell>
        <mxCell id="tQMDJWdNe0vZUp2bcSFk-35" value="" style="verticalLabelPosition=bottom;aspect=fixed;html=1;shape=mxgraph.salesforce.web;" vertex="1" parent="1">
          <mxGeometry x="1550" y="255" width="60" height="47.400000000000006" as="geometry" />
        </mxCell>
        <mxCell id="tQMDJWdNe0vZUp2bcSFk-36" value="web giaxemay.click" style="text;html=1;align=center;verticalAlign=middle;whiteSpace=wrap;rounded=0;" vertex="1" parent="1">
          <mxGeometry x="1505" y="310" width="150" height="30" as="geometry" />
        </mxCell>
        <mxCell id="433LUs6v8Q2cJ-PIMVXH-1" value="" style="rounded=0;whiteSpace=wrap;html=1;" vertex="1" parent="1">
          <mxGeometry x="40" y="355" width="190" height="240" as="geometry" />
        </mxCell>
        <mxCell id="433LUs6v8Q2cJ-PIMVXH-2" value="&lt;span style=&quot;font-size: 16px;&quot;&gt;TIKI.vn&lt;/span&gt;" style="text;html=1;align=center;verticalAlign=middle;whiteSpace=wrap;rounded=0;" vertex="1" parent="1">
          <mxGeometry x="100" y="470" width="80" height="30" as="geometry" />
        </mxCell>
        <mxCell id="433LUs6v8Q2cJ-PIMVXH-3" style="edgeStyle=orthogonalEdgeStyle;rounded=0;orthogonalLoop=1;jettySize=auto;html=1;entryX=0;entryY=0.75;entryDx=10;entryDy=0;entryPerimeter=0;" edge="1" parent="1" source="433LUs6v8Q2cJ-PIMVXH-1" target="tQMDJWdNe0vZUp2bcSFk-6">
          <mxGeometry relative="1" as="geometry">
            <Array as="points">
              <mxPoint x="330" y="450" />
              <mxPoint x="330" y="153" />
            </Array>
          </mxGeometry>
        </mxCell>
      </root>
    </mxGraphModel>
  </diagram>
  <diagram name="DBStaging" id="qApJzgcuTR9B1go0Uq3Y">
    <mxGraphModel grid="1" page="1" gridSize="10" guides="1" tooltips="1" connect="1" arrows="1" fold="1" pageScale="1" pageWidth="850" pageHeight="1100" math="0" shadow="0">
      <root>
        <mxCell id="0" />
        <mxCell id="1" parent="0" />
        <mxCell id="xzBUps2542oEF7cr53s2-1" value="DBStaging_VNEX" style="swimlane;fontStyle=0;childLayout=stackLayout;horizontal=1;startSize=26;fillColor=none;horizontalStack=0;resizeParent=1;resizeParentMax=0;resizeLast=0;collapsible=1;marginBottom=0;whiteSpace=wrap;html=1;" vertex="1" parent="1">
          <mxGeometry x="180" y="170" width="280" height="521" as="geometry" />
        </mxCell>
        <mxCell id="xzBUps2542oEF7cr53s2-2" value="id -Serial" style="text;strokeColor=none;fillColor=none;align=left;verticalAlign=top;spacingLeft=4;spacingRight=4;overflow=hidden;rotatable=0;points=[[0,0.5],[1,0.5]];portConstraint=eastwest;whiteSpace=wrap;html=1;" vertex="1" parent="xzBUps2542oEF7cr53s2-1">
          <mxGeometry y="26" width="280" height="27" as="geometry" />
        </mxCell>
        <mxCell id="xzBUps2542oEF7cr53s2-13" value="model_name - varchar(255)" style="text;strokeColor=none;fillColor=none;align=left;verticalAlign=top;spacingLeft=4;spacingRight=4;overflow=hidden;rotatable=0;points=[[0,0.5],[1,0.5]];portConstraint=eastwest;whiteSpace=wrap;html=1;" vertex="1" parent="xzBUps2542oEF7cr53s2-1">
          <mxGeometry y="53" width="280" height="26" as="geometry" />
        </mxCell>
        <mxCell id="UFjOV6CtRlkHPbVzq0-9-21" value="color - varchar(255)" style="text;strokeColor=none;fillColor=none;align=left;verticalAlign=top;spacingLeft=4;spacingRight=4;overflow=hidden;rotatable=0;points=[[0,0.5],[1,0.5]];portConstraint=eastwest;whiteSpace=wrap;html=1;" vertex="1" parent="xzBUps2542oEF7cr53s2-1">
          <mxGeometry y="79" width="280" height="26" as="geometry" />
        </mxCell>
        <mxCell id="xzBUps2542oEF7cr53s2-16" value="price - float" style="text;strokeColor=none;fillColor=none;align=left;verticalAlign=top;spacingLeft=4;spacingRight=4;overflow=hidden;rotatable=0;points=[[0,0.5],[1,0.5]];portConstraint=eastwest;whiteSpace=wrap;html=1;" vertex="1" parent="xzBUps2542oEF7cr53s2-1">
          <mxGeometry y="105" width="280" height="26" as="geometry" />
        </mxCell>
        <mxCell id="xzBUps2542oEF7cr53s2-18" value="brand - varchar(255)" style="text;strokeColor=none;fillColor=none;align=left;verticalAlign=top;spacingLeft=4;spacingRight=4;overflow=hidden;rotatable=0;points=[[0,0.5],[1,0.5]];portConstraint=eastwest;whiteSpace=wrap;html=1;" vertex="1" parent="xzBUps2542oEF7cr53s2-1">
          <mxGeometry y="131" width="280" height="26" as="geometry" />
        </mxCell>
        <mxCell id="xzBUps2542oEF7cr53s2-17" value="version- varchar (255)" style="text;strokeColor=none;fillColor=none;align=left;verticalAlign=top;spacingLeft=4;spacingRight=4;overflow=hidden;rotatable=0;points=[[0,0.5],[1,0.5]];portConstraint=eastwest;whiteSpace=wrap;html=1;" vertex="1" parent="xzBUps2542oEF7cr53s2-1">
          <mxGeometry y="157" width="280" height="26" as="geometry" />
        </mxCell>
        <mxCell id="xzBUps2542oEF7cr53s2-3" value="name - varchar(500)" style="text;strokeColor=none;fillColor=none;align=left;verticalAlign=top;spacingLeft=4;spacingRight=4;overflow=hidden;rotatable=0;points=[[0,0.5],[1,0.5]];portConstraint=eastwest;whiteSpace=wrap;html=1;" vertex="1" parent="xzBUps2542oEF7cr53s2-1">
          <mxGeometry y="183" width="280" height="26" as="geometry" />
        </mxCell>
        <mxCell id="UFjOV6CtRlkHPbVzq0-9-18" value="engine_capacity -varchar(255)" style="text;strokeColor=none;fillColor=none;align=left;verticalAlign=top;spacingLeft=4;spacingRight=4;overflow=hidden;rotatable=0;points=[[0,0.5],[1,0.5]];portConstraint=eastwest;whiteSpace=wrap;html=1;" vertex="1" parent="xzBUps2542oEF7cr53s2-1">
          <mxGeometry y="209" width="280" height="26" as="geometry" />
        </mxCell>
        <mxCell id="UFjOV6CtRlkHPbVzq0-9-19" value="engine_type &lt;span class=&quot;hljs-type&quot;&gt;VARCHAR&lt;/span&gt;(&lt;span class=&quot;hljs-number&quot;&gt;255&lt;/span&gt;)" style="text;strokeColor=none;fillColor=none;align=left;verticalAlign=top;spacingLeft=4;spacingRight=4;overflow=hidden;rotatable=0;points=[[0,0.5],[1,0.5]];portConstraint=eastwest;whiteSpace=wrap;html=1;" vertex="1" parent="xzBUps2542oEF7cr53s2-1">
          <mxGeometry y="235" width="280" height="26" as="geometry" />
        </mxCell>
        <mxCell id="UFjOV6CtRlkHPbVzq0-9-20" value="&amp;nbsp;transmission_type &lt;span class=&quot;hljs-type&quot;&gt;VARCHAR&lt;/span&gt;(&lt;span class=&quot;hljs-number&quot;&gt;255&lt;/span&gt;)" style="text;strokeColor=none;fillColor=none;align=left;verticalAlign=top;spacingLeft=4;spacingRight=4;overflow=hidden;rotatable=0;points=[[0,0.5],[1,0.5]];portConstraint=eastwest;whiteSpace=wrap;html=1;" vertex="1" parent="xzBUps2542oEF7cr53s2-1">
          <mxGeometry y="261" width="280" height="26" as="geometry" />
        </mxCell>
        <mxCell id="45IjH20kS6a7lJ8hGtY_-1" value="&amp;nbsp;features TEXT //tính năng nổi bật&amp;nbsp; &amp;nbsp;" style="text;strokeColor=none;fillColor=none;align=left;verticalAlign=top;spacingLeft=4;spacingRight=4;overflow=hidden;rotatable=0;points=[[0,0.5],[1,0.5]];portConstraint=eastwest;whiteSpace=wrap;html=1;" vertex="1" parent="xzBUps2542oEF7cr53s2-1">
          <mxGeometry y="287" width="280" height="26" as="geometry" />
        </mxCell>
        <mxCell id="xzBUps2542oEF7cr53s2-5" value="author_name- text" style="text;strokeColor=none;fillColor=none;align=left;verticalAlign=top;spacingLeft=4;spacingRight=4;overflow=hidden;rotatable=0;points=[[0,0.5],[1,0.5]];portConstraint=eastwest;whiteSpace=wrap;html=1;" vertex="1" parent="xzBUps2542oEF7cr53s2-1">
          <mxGeometry y="313" width="280" height="26" as="geometry" />
        </mxCell>
        <mxCell id="xzBUps2542oEF7cr53s2-6" value="time_up - timestamp" style="text;strokeColor=none;fillColor=none;align=left;verticalAlign=top;spacingLeft=4;spacingRight=4;overflow=hidden;rotatable=0;points=[[0,0.5],[1,0.5]];portConstraint=eastwest;whiteSpace=wrap;html=1;" vertex="1" parent="xzBUps2542oEF7cr53s2-1">
          <mxGeometry y="339" width="280" height="26" as="geometry" />
        </mxCell>
        <mxCell id="xzBUps2542oEF7cr53s2-7" value="pUrl - varchar(1000) //page source url" style="text;strokeColor=none;fillColor=none;align=left;verticalAlign=top;spacingLeft=4;spacingRight=4;overflow=hidden;rotatable=0;points=[[0,0.5],[1,0.5]];portConstraint=eastwest;whiteSpace=wrap;html=1;" vertex="1" parent="xzBUps2542oEF7cr53s2-1">
          <mxGeometry y="365" width="280" height="26" as="geometry" />
        </mxCell>
        <mxCell id="xzBUps2542oEF7cr53s2-8" value="type - varchar(255)" style="text;strokeColor=none;fillColor=none;align=left;verticalAlign=top;spacingLeft=4;spacingRight=4;overflow=hidden;rotatable=0;points=[[0,0.5],[1,0.5]];portConstraint=eastwest;whiteSpace=wrap;html=1;" vertex="1" parent="xzBUps2542oEF7cr53s2-1">
          <mxGeometry y="391" width="280" height="26" as="geometry" />
        </mxCell>
        <mxCell id="xzBUps2542oEF7cr53s2-9" value="image_url - text" style="text;strokeColor=none;fillColor=none;align=left;verticalAlign=top;spacingLeft=4;spacingRight=4;overflow=hidden;rotatable=0;points=[[0,0.5],[1,0.5]];portConstraint=eastwest;whiteSpace=wrap;html=1;" vertex="1" parent="xzBUps2542oEF7cr53s2-1">
          <mxGeometry y="417" width="280" height="26" as="geometry" />
        </mxCell>
        <mxCell id="xzBUps2542oEF7cr53s2-10" value="source_name - varchar(255)" style="text;strokeColor=none;fillColor=none;align=left;verticalAlign=top;spacingLeft=4;spacingRight=4;overflow=hidden;rotatable=0;points=[[0,0.5],[1,0.5]];portConstraint=eastwest;whiteSpace=wrap;html=1;" vertex="1" parent="xzBUps2542oEF7cr53s2-1">
          <mxGeometry y="443" width="280" height="26" as="geometry" />
        </mxCell>
        <mxCell id="xzBUps2542oEF7cr53s2-11" value="status - varchar(255)" style="text;strokeColor=none;fillColor=none;align=left;verticalAlign=top;spacingLeft=4;spacingRight=4;overflow=hidden;rotatable=0;points=[[0,0.5],[1,0.5]];portConstraint=eastwest;whiteSpace=wrap;html=1;" vertex="1" parent="xzBUps2542oEF7cr53s2-1">
          <mxGeometry y="469" width="280" height="26" as="geometry" />
        </mxCell>
        <mxCell id="xzBUps2542oEF7cr53s2-12" value="create_at - Timestamp" style="text;strokeColor=none;fillColor=none;align=left;verticalAlign=top;spacingLeft=4;spacingRight=4;overflow=hidden;rotatable=0;points=[[0,0.5],[1,0.5]];portConstraint=eastwest;whiteSpace=wrap;html=1;" vertex="1" parent="xzBUps2542oEF7cr53s2-1">
          <mxGeometry y="495" width="280" height="26" as="geometry" />
        </mxCell>
        <mxCell id="UFjOV6CtRlkHPbVzq0-9-1" value="DBStaging_Tiki" style="swimlane;fontStyle=0;childLayout=stackLayout;horizontal=1;startSize=26;fillColor=none;horizontalStack=0;resizeParent=1;resizeParentMax=0;resizeLast=0;collapsible=1;marginBottom=0;whiteSpace=wrap;html=1;" vertex="1" parent="1">
          <mxGeometry x="520" y="170" width="280" height="468" as="geometry" />
        </mxCell>
        <mxCell id="UFjOV6CtRlkHPbVzq0-9-2" value="id -Serial" style="text;strokeColor=none;fillColor=none;align=left;verticalAlign=top;spacingLeft=4;spacingRight=4;overflow=hidden;rotatable=0;points=[[0,0.5],[1,0.5]];portConstraint=eastwest;whiteSpace=wrap;html=1;" vertex="1" parent="UFjOV6CtRlkHPbVzq0-9-1">
          <mxGeometry y="26" width="280" height="26" as="geometry" />
        </mxCell>
        <mxCell id="UFjOV6CtRlkHPbVzq0-9-3" value="model_name - varchar(255)" style="text;strokeColor=none;fillColor=none;align=left;verticalAlign=top;spacingLeft=4;spacingRight=4;overflow=hidden;rotatable=0;points=[[0,0.5],[1,0.5]];portConstraint=eastwest;whiteSpace=wrap;html=1;" vertex="1" parent="UFjOV6CtRlkHPbVzq0-9-1">
          <mxGeometry y="52" width="280" height="26" as="geometry" />
        </mxCell>
        <mxCell id="UFjOV6CtRlkHPbVzq0-9-4" value="color - varchar(255)" style="text;strokeColor=none;fillColor=none;align=left;verticalAlign=top;spacingLeft=4;spacingRight=4;overflow=hidden;rotatable=0;points=[[0,0.5],[1,0.5]];portConstraint=eastwest;whiteSpace=wrap;html=1;" vertex="1" parent="UFjOV6CtRlkHPbVzq0-9-1">
          <mxGeometry y="78" width="280" height="26" as="geometry" />
        </mxCell>
        <mxCell id="UFjOV6CtRlkHPbVzq0-9-5" value="price -float" style="text;strokeColor=none;fillColor=none;align=left;verticalAlign=top;spacingLeft=4;spacingRight=4;overflow=hidden;rotatable=0;points=[[0,0.5],[1,0.5]];portConstraint=eastwest;whiteSpace=wrap;html=1;" vertex="1" parent="UFjOV6CtRlkHPbVzq0-9-1">
          <mxGeometry y="104" width="280" height="26" as="geometry" />
        </mxCell>
        <mxCell id="UFjOV6CtRlkHPbVzq0-9-23" value="brand - varchar(255)" style="text;strokeColor=none;fillColor=none;align=left;verticalAlign=top;spacingLeft=4;spacingRight=4;overflow=hidden;rotatable=0;points=[[0,0.5],[1,0.5]];portConstraint=eastwest;whiteSpace=wrap;html=1;" vertex="1" parent="UFjOV6CtRlkHPbVzq0-9-1">
          <mxGeometry y="130" width="280" height="26" as="geometry" />
        </mxCell>
        <mxCell id="UFjOV6CtRlkHPbVzq0-9-6" value="version- varchar (255)" style="text;strokeColor=none;fillColor=none;align=left;verticalAlign=top;spacingLeft=4;spacingRight=4;overflow=hidden;rotatable=0;points=[[0,0.5],[1,0.5]];portConstraint=eastwest;whiteSpace=wrap;html=1;" vertex="1" parent="UFjOV6CtRlkHPbVzq0-9-1">
          <mxGeometry y="156" width="280" height="26" as="geometry" />
        </mxCell>
        <mxCell id="UFjOV6CtRlkHPbVzq0-9-7" value="name - varchar(500)" style="text;strokeColor=none;fillColor=none;align=left;verticalAlign=top;spacingLeft=4;spacingRight=4;overflow=hidden;rotatable=0;points=[[0,0.5],[1,0.5]];portConstraint=eastwest;whiteSpace=wrap;html=1;" vertex="1" parent="UFjOV6CtRlkHPbVzq0-9-1">
          <mxGeometry y="182" width="280" height="26" as="geometry" />
        </mxCell>
        <mxCell id="UFjOV6CtRlkHPbVzq0-9-8" value="engine_capacity -varchar(255)" style="text;strokeColor=none;fillColor=none;align=left;verticalAlign=top;spacingLeft=4;spacingRight=4;overflow=hidden;rotatable=0;points=[[0,0.5],[1,0.5]];portConstraint=eastwest;whiteSpace=wrap;html=1;" vertex="1" parent="UFjOV6CtRlkHPbVzq0-9-1">
          <mxGeometry y="208" width="280" height="26" as="geometry" />
        </mxCell>
        <mxCell id="UFjOV6CtRlkHPbVzq0-9-10" value="author_name- text" style="text;strokeColor=none;fillColor=none;align=left;verticalAlign=top;spacingLeft=4;spacingRight=4;overflow=hidden;rotatable=0;points=[[0,0.5],[1,0.5]];portConstraint=eastwest;whiteSpace=wrap;html=1;" vertex="1" parent="UFjOV6CtRlkHPbVzq0-9-1">
          <mxGeometry y="234" width="280" height="26" as="geometry" />
        </mxCell>
        <mxCell id="UFjOV6CtRlkHPbVzq0-9-11" value="time_up - timestamp" style="text;strokeColor=none;fillColor=none;align=left;verticalAlign=top;spacingLeft=4;spacingRight=4;overflow=hidden;rotatable=0;points=[[0,0.5],[1,0.5]];portConstraint=eastwest;whiteSpace=wrap;html=1;" vertex="1" parent="UFjOV6CtRlkHPbVzq0-9-1">
          <mxGeometry y="260" width="280" height="26" as="geometry" />
        </mxCell>
        <mxCell id="UFjOV6CtRlkHPbVzq0-9-12" value="pUrl - varchar(1000) //page source url" style="text;strokeColor=none;fillColor=none;align=left;verticalAlign=top;spacingLeft=4;spacingRight=4;overflow=hidden;rotatable=0;points=[[0,0.5],[1,0.5]];portConstraint=eastwest;whiteSpace=wrap;html=1;" vertex="1" parent="UFjOV6CtRlkHPbVzq0-9-1">
          <mxGeometry y="286" width="280" height="26" as="geometry" />
        </mxCell>
        <mxCell id="UFjOV6CtRlkHPbVzq0-9-13" value="type - varchar(255)" style="text;strokeColor=none;fillColor=none;align=left;verticalAlign=top;spacingLeft=4;spacingRight=4;overflow=hidden;rotatable=0;points=[[0,0.5],[1,0.5]];portConstraint=eastwest;whiteSpace=wrap;html=1;" vertex="1" parent="UFjOV6CtRlkHPbVzq0-9-1">
          <mxGeometry y="312" width="280" height="26" as="geometry" />
        </mxCell>
        <mxCell id="UFjOV6CtRlkHPbVzq0-9-14" value="image_url - text" style="text;strokeColor=none;fillColor=none;align=left;verticalAlign=top;spacingLeft=4;spacingRight=4;overflow=hidden;rotatable=0;points=[[0,0.5],[1,0.5]];portConstraint=eastwest;whiteSpace=wrap;html=1;" vertex="1" parent="UFjOV6CtRlkHPbVzq0-9-1">
          <mxGeometry y="338" width="280" height="26" as="geometry" />
        </mxCell>
        <mxCell id="UFjOV6CtRlkHPbVzq0-9-15" value="source_name - varchar(255)" style="text;strokeColor=none;fillColor=none;align=left;verticalAlign=top;spacingLeft=4;spacingRight=4;overflow=hidden;rotatable=0;points=[[0,0.5],[1,0.5]];portConstraint=eastwest;whiteSpace=wrap;html=1;" vertex="1" parent="UFjOV6CtRlkHPbVzq0-9-1">
          <mxGeometry y="364" width="280" height="26" as="geometry" />
        </mxCell>
        <mxCell id="UFjOV6CtRlkHPbVzq0-9-24" value=" customer_reviews TEXT //bình luận khách hàng" style="text;strokeColor=none;fillColor=none;align=left;verticalAlign=top;spacingLeft=4;spacingRight=4;overflow=hidden;rotatable=0;points=[[0,0.5],[1,0.5]];portConstraint=eastwest;whiteSpace=wrap;html=1;" vertex="1" parent="UFjOV6CtRlkHPbVzq0-9-1">
          <mxGeometry y="390" width="280" height="26" as="geometry" />
        </mxCell>
        <mxCell id="UFjOV6CtRlkHPbVzq0-9-16" value="status - varchar(255)" style="text;strokeColor=none;fillColor=none;align=left;verticalAlign=top;spacingLeft=4;spacingRight=4;overflow=hidden;rotatable=0;points=[[0,0.5],[1,0.5]];portConstraint=eastwest;whiteSpace=wrap;html=1;" vertex="1" parent="UFjOV6CtRlkHPbVzq0-9-1">
          <mxGeometry y="416" width="280" height="26" as="geometry" />
        </mxCell>
        <mxCell id="UFjOV6CtRlkHPbVzq0-9-17" value="create_at - Timestamp" style="text;strokeColor=none;fillColor=none;align=left;verticalAlign=top;spacingLeft=4;spacingRight=4;overflow=hidden;rotatable=0;points=[[0,0.5],[1,0.5]];portConstraint=eastwest;whiteSpace=wrap;html=1;" vertex="1" parent="UFjOV6CtRlkHPbVzq0-9-1">
          <mxGeometry y="442" width="280" height="26" as="geometry" />
        </mxCell>
      </root>
    </mxGraphModel>
  </diagram>
  <diagram id="8Cb4m1HtlZ4qwxTw09Ol" name="dbControll">
    <mxGraphModel grid="1" page="1" gridSize="10" guides="1" tooltips="1" connect="1" arrows="1" fold="1" pageScale="1" pageWidth="850" pageHeight="1100" math="0" shadow="0">
      <root>
        <mxCell id="0" />
        <mxCell id="1" parent="0" />
        <mxCell id="ubIO18NdrNsZvKzKsq_i-1" value="Controlls" style="swimlane;fontStyle=0;childLayout=stackLayout;horizontal=1;startSize=26;fillColor=none;horizontalStack=0;resizeParent=1;resizeParentMax=0;resizeLast=0;collapsible=1;marginBottom=0;whiteSpace=wrap;html=1;" vertex="1" parent="1">
          <mxGeometry x="200" y="170" width="140" height="208" as="geometry" />
        </mxCell>
        <mxCell id="ubIO18NdrNsZvKzKsq_i-2" value="id - Serial" style="text;strokeColor=none;fillColor=none;align=left;verticalAlign=top;spacingLeft=4;spacingRight=4;overflow=hidden;rotatable=0;points=[[0,0.5],[1,0.5]];portConstraint=eastwest;whiteSpace=wrap;html=1;" vertex="1" parent="ubIO18NdrNsZvKzKsq_i-1">
          <mxGeometry y="26" width="140" height="26" as="geometry" />
        </mxCell>
        <mxCell id="ubIO18NdrNsZvKzKsq_i-3" value="config_id&amp;nbsp; - int" style="text;strokeColor=none;fillColor=none;align=left;verticalAlign=top;spacingLeft=4;spacingRight=4;overflow=hidden;rotatable=0;points=[[0,0.5],[1,0.5]];portConstraint=eastwest;whiteSpace=wrap;html=1;" vertex="1" parent="ubIO18NdrNsZvKzKsq_i-1">
          <mxGeometry y="52" width="140" height="26" as="geometry" />
        </mxCell>
        <mxCell id="ubIO18NdrNsZvKzKsq_i-4" value="name - varchar(255)" style="text;strokeColor=none;fillColor=none;align=left;verticalAlign=top;spacingLeft=4;spacingRight=4;overflow=hidden;rotatable=0;points=[[0,0.5],[1,0.5]];portConstraint=eastwest;whiteSpace=wrap;html=1;" vertex="1" parent="ubIO18NdrNsZvKzKsq_i-1">
          <mxGeometry y="78" width="140" height="26" as="geometry" />
        </mxCell>
        <mxCell id="ubIO18NdrNsZvKzKsq_i-12" value="description -text" style="text;strokeColor=none;fillColor=none;align=left;verticalAlign=top;spacingLeft=4;spacingRight=4;overflow=hidden;rotatable=0;points=[[0,0.5],[1,0.5]];portConstraint=eastwest;whiteSpace=wrap;html=1;" vertex="1" parent="ubIO18NdrNsZvKzKsq_i-1">
          <mxGeometry y="104" width="140" height="26" as="geometry" />
        </mxCell>
        <mxCell id="ubIO18NdrNsZvKzKsq_i-13" value="status - varchar(255)" style="text;strokeColor=none;fillColor=none;align=left;verticalAlign=top;spacingLeft=4;spacingRight=4;overflow=hidden;rotatable=0;points=[[0,0.5],[1,0.5]];portConstraint=eastwest;whiteSpace=wrap;html=1;" vertex="1" parent="ubIO18NdrNsZvKzKsq_i-1">
          <mxGeometry y="130" width="140" height="26" as="geometry" />
        </mxCell>
        <mxCell id="ubIO18NdrNsZvKzKsq_i-14" value="create_at - timestamp" style="text;strokeColor=none;fillColor=none;align=left;verticalAlign=top;spacingLeft=4;spacingRight=4;overflow=hidden;rotatable=0;points=[[0,0.5],[1,0.5]];portConstraint=eastwest;whiteSpace=wrap;html=1;" vertex="1" parent="ubIO18NdrNsZvKzKsq_i-1">
          <mxGeometry y="156" width="140" height="26" as="geometry" />
        </mxCell>
        <mxCell id="ubIO18NdrNsZvKzKsq_i-15" value="update_at - timestamp" style="text;strokeColor=none;fillColor=none;align=left;verticalAlign=top;spacingLeft=4;spacingRight=4;overflow=hidden;rotatable=0;points=[[0,0.5],[1,0.5]];portConstraint=eastwest;whiteSpace=wrap;html=1;" vertex="1" parent="ubIO18NdrNsZvKzKsq_i-1">
          <mxGeometry y="182" width="140" height="26" as="geometry" />
        </mxCell>
        <mxCell id="ubIO18NdrNsZvKzKsq_i-5" value="logs" style="swimlane;fontStyle=0;childLayout=stackLayout;horizontal=1;startSize=26;fillColor=none;horizontalStack=0;resizeParent=1;resizeParentMax=0;resizeLast=0;collapsible=1;marginBottom=0;whiteSpace=wrap;html=1;" vertex="1" parent="1">
          <mxGeometry x="500" y="205" width="240" height="182" as="geometry" />
        </mxCell>
        <mxCell id="ubIO18NdrNsZvKzKsq_i-6" value="id - Serial" style="text;strokeColor=none;fillColor=none;align=left;verticalAlign=top;spacingLeft=4;spacingRight=4;overflow=hidden;rotatable=0;points=[[0,0.5],[1,0.5]];portConstraint=eastwest;whiteSpace=wrap;html=1;" vertex="1" parent="ubIO18NdrNsZvKzKsq_i-5">
          <mxGeometry y="26" width="240" height="26" as="geometry" />
        </mxCell>
        <mxCell id="ubIO18NdrNsZvKzKsq_i-7" value="event_name - varchar(255)" style="text;strokeColor=none;fillColor=none;align=left;verticalAlign=top;spacingLeft=4;spacingRight=4;overflow=hidden;rotatable=0;points=[[0,0.5],[1,0.5]];portConstraint=eastwest;whiteSpace=wrap;html=1;" vertex="1" parent="ubIO18NdrNsZvKzKsq_i-5">
          <mxGeometry y="52" width="240" height="26" as="geometry" />
        </mxCell>
        <mxCell id="ubIO18NdrNsZvKzKsq_i-8" value="event_type - varchar(255)" style="text;strokeColor=none;fillColor=none;align=left;verticalAlign=top;spacingLeft=4;spacingRight=4;overflow=hidden;rotatable=0;points=[[0,0.5],[1,0.5]];portConstraint=eastwest;whiteSpace=wrap;html=1;" vertex="1" parent="ubIO18NdrNsZvKzKsq_i-5">
          <mxGeometry y="78" width="240" height="26" as="geometry" />
        </mxCell>
        <mxCell id="ubIO18NdrNsZvKzKsq_i-9" value="status - varchar(255)" style="text;strokeColor=none;fillColor=none;align=left;verticalAlign=top;spacingLeft=4;spacingRight=4;overflow=hidden;rotatable=0;points=[[0,0.5],[1,0.5]];portConstraint=eastwest;whiteSpace=wrap;html=1;" vertex="1" parent="ubIO18NdrNsZvKzKsq_i-5">
          <mxGeometry y="104" width="240" height="26" as="geometry" />
        </mxCell>
        <mxCell id="ubIO18NdrNsZvKzKsq_i-10" value="location - varchar(255)" style="text;strokeColor=none;fillColor=none;align=left;verticalAlign=top;spacingLeft=4;spacingRight=4;overflow=hidden;rotatable=0;points=[[0,0.5],[1,0.5]];portConstraint=eastwest;whiteSpace=wrap;html=1;" vertex="1" parent="ubIO18NdrNsZvKzKsq_i-5">
          <mxGeometry y="130" width="240" height="26" as="geometry" />
        </mxCell>
        <mxCell id="ubIO18NdrNsZvKzKsq_i-11" value="create_at - Timestamp" style="text;strokeColor=none;fillColor=none;align=left;verticalAlign=top;spacingLeft=4;spacingRight=4;overflow=hidden;rotatable=0;points=[[0,0.5],[1,0.5]];portConstraint=eastwest;whiteSpace=wrap;html=1;" vertex="1" parent="ubIO18NdrNsZvKzKsq_i-5">
          <mxGeometry y="156" width="240" height="26" as="geometry" />
        </mxCell>
        <mxCell id="dPNc5c39EvYprp-qF2Lc-1" value="Config" style="swimlane;fontStyle=0;childLayout=stackLayout;horizontal=1;startSize=26;fillColor=none;horizontalStack=0;resizeParent=1;resizeParentMax=0;resizeLast=0;collapsible=1;marginBottom=0;whiteSpace=wrap;html=1;" vertex="1" parent="1">
          <mxGeometry x="570" y="400" width="230" height="364" as="geometry" />
        </mxCell>
        <mxCell id="dPNc5c39EvYprp-qF2Lc-2" value="id - Serial" style="text;strokeColor=none;fillColor=none;align=left;verticalAlign=top;spacingLeft=4;spacingRight=4;overflow=hidden;rotatable=0;points=[[0,0.5],[1,0.5]];portConstraint=eastwest;whiteSpace=wrap;html=1;" vertex="1" parent="dPNc5c39EvYprp-qF2Lc-1">
          <mxGeometry y="26" width="230" height="26" as="geometry" />
        </mxCell>
        <mxCell id="dPNc5c39EvYprp-qF2Lc-3" value="name - varchar(255)" style="text;strokeColor=none;fillColor=none;align=left;verticalAlign=top;spacingLeft=4;spacingRight=4;overflow=hidden;rotatable=0;points=[[0,0.5],[1,0.5]];portConstraint=eastwest;whiteSpace=wrap;html=1;" vertex="1" parent="dPNc5c39EvYprp-qF2Lc-1">
          <mxGeometry y="52" width="230" height="26" as="geometry" />
        </mxCell>
        <mxCell id="dPNc5c39EvYprp-qF2Lc-4" value="desciption -text&amp;nbsp;" style="text;strokeColor=none;fillColor=none;align=left;verticalAlign=top;spacingLeft=4;spacingRight=4;overflow=hidden;rotatable=0;points=[[0,0.5],[1,0.5]];portConstraint=eastwest;whiteSpace=wrap;html=1;" vertex="1" parent="dPNc5c39EvYprp-qF2Lc-1">
          <mxGeometry y="78" width="230" height="26" as="geometry" />
        </mxCell>
        <mxCell id="dPNc5c39EvYprp-qF2Lc-5" value="source_path - varchar(500)" style="text;strokeColor=none;fillColor=none;align=left;verticalAlign=top;spacingLeft=4;spacingRight=4;overflow=hidden;rotatable=0;points=[[0,0.5],[1,0.5]];portConstraint=eastwest;whiteSpace=wrap;html=1;" vertex="1" parent="dPNc5c39EvYprp-qF2Lc-1">
          <mxGeometry y="104" width="230" height="26" as="geometry" />
        </mxCell>
        <mxCell id="dPNc5c39EvYprp-qF2Lc-6" value="destination - varchar(500)" style="text;strokeColor=none;fillColor=none;align=left;verticalAlign=top;spacingLeft=4;spacingRight=4;overflow=hidden;rotatable=0;points=[[0,0.5],[1,0.5]];portConstraint=eastwest;whiteSpace=wrap;html=1;" vertex="1" parent="dPNc5c39EvYprp-qF2Lc-1">
          <mxGeometry y="130" width="230" height="26" as="geometry" />
        </mxCell>
        <mxCell id="dPNc5c39EvYprp-qF2Lc-7" value="column -text" style="text;strokeColor=none;fillColor=none;align=left;verticalAlign=top;spacingLeft=4;spacingRight=4;overflow=hidden;rotatable=0;points=[[0,0.5],[1,0.5]];portConstraint=eastwest;whiteSpace=wrap;html=1;" vertex="1" parent="dPNc5c39EvYprp-qF2Lc-1">
          <mxGeometry y="156" width="230" height="26" as="geometry" />
        </mxCell>
        <mxCell id="dPNc5c39EvYprp-qF2Lc-8" value="separator - varchar(500)" style="text;strokeColor=none;fillColor=none;align=left;verticalAlign=top;spacingLeft=4;spacingRight=4;overflow=hidden;rotatable=0;points=[[0,0.5],[1,0.5]];portConstraint=eastwest;whiteSpace=wrap;html=1;" vertex="1" parent="dPNc5c39EvYprp-qF2Lc-1">
          <mxGeometry y="182" width="230" height="26" as="geometry" />
        </mxCell>
        <mxCell id="dPNc5c39EvYprp-qF2Lc-9" value="location -varchar (500)" style="text;strokeColor=none;fillColor=none;align=left;verticalAlign=top;spacingLeft=4;spacingRight=4;overflow=hidden;rotatable=0;points=[[0,0.5],[1,0.5]];portConstraint=eastwest;whiteSpace=wrap;html=1;" vertex="1" parent="dPNc5c39EvYprp-qF2Lc-1">
          <mxGeometry y="208" width="230" height="26" as="geometry" />
        </mxCell>
        <mxCell id="dPNc5c39EvYprp-qF2Lc-10" value="fomat -varchar (500)" style="text;strokeColor=none;fillColor=none;align=left;verticalAlign=top;spacingLeft=4;spacingRight=4;overflow=hidden;rotatable=0;points=[[0,0.5],[1,0.5]];portConstraint=eastwest;whiteSpace=wrap;html=1;" vertex="1" parent="dPNc5c39EvYprp-qF2Lc-1">
          <mxGeometry y="234" width="230" height="26" as="geometry" />
        </mxCell>
        <mxCell id="dPNc5c39EvYprp-qF2Lc-11" value="create_at -Timestamp" style="text;strokeColor=none;fillColor=none;align=left;verticalAlign=top;spacingLeft=4;spacingRight=4;overflow=hidden;rotatable=0;points=[[0,0.5],[1,0.5]];portConstraint=eastwest;whiteSpace=wrap;html=1;" vertex="1" parent="dPNc5c39EvYprp-qF2Lc-1">
          <mxGeometry y="260" width="230" height="26" as="geometry" />
        </mxCell>
        <mxCell id="dPNc5c39EvYprp-qF2Lc-12" value="update_at -Timestamp" style="text;strokeColor=none;fillColor=none;align=left;verticalAlign=top;spacingLeft=4;spacingRight=4;overflow=hidden;rotatable=0;points=[[0,0.5],[1,0.5]];portConstraint=eastwest;whiteSpace=wrap;html=1;" vertex="1" parent="dPNc5c39EvYprp-qF2Lc-1">
          <mxGeometry y="286" width="230" height="26" as="geometry" />
        </mxCell>
        <mxCell id="dPNc5c39EvYprp-qF2Lc-13" value="create_by -varchar(255)" style="text;strokeColor=none;fillColor=none;align=left;verticalAlign=top;spacingLeft=4;spacingRight=4;overflow=hidden;rotatable=0;points=[[0,0.5],[1,0.5]];portConstraint=eastwest;whiteSpace=wrap;html=1;" vertex="1" parent="dPNc5c39EvYprp-qF2Lc-1">
          <mxGeometry y="312" width="230" height="26" as="geometry" />
        </mxCell>
        <mxCell id="dPNc5c39EvYprp-qF2Lc-14" value="update_by -varchar(255)" style="text;strokeColor=none;fillColor=none;align=left;verticalAlign=top;spacingLeft=4;spacingRight=4;overflow=hidden;rotatable=0;points=[[0,0.5],[1,0.5]];portConstraint=eastwest;whiteSpace=wrap;html=1;" vertex="1" parent="dPNc5c39EvYprp-qF2Lc-1">
          <mxGeometry y="338" width="230" height="26" as="geometry" />
        </mxCell>
        <mxCell id="dPNc5c39EvYprp-qF2Lc-15" value="Files" style="swimlane;fontStyle=0;childLayout=stackLayout;horizontal=1;startSize=26;fillColor=none;horizontalStack=0;resizeParent=1;resizeParentMax=0;resizeLast=0;collapsible=1;marginBottom=0;whiteSpace=wrap;html=1;" vertex="1" parent="1">
          <mxGeometry x="90" y="387" width="325" height="390" as="geometry" />
        </mxCell>
        <mxCell id="dPNc5c39EvYprp-qF2Lc-16" value="id - Serial" style="text;strokeColor=none;fillColor=none;align=left;verticalAlign=top;spacingLeft=4;spacingRight=4;overflow=hidden;rotatable=0;points=[[0,0.5],[1,0.5]];portConstraint=eastwest;whiteSpace=wrap;html=1;" vertex="1" parent="dPNc5c39EvYprp-qF2Lc-15">
          <mxGeometry y="26" width="325" height="26" as="geometry" />
        </mxCell>
        <mxCell id="dPNc5c39EvYprp-qF2Lc-17" value="configs_id - int" style="text;strokeColor=none;fillColor=none;align=left;verticalAlign=top;spacingLeft=4;spacingRight=4;overflow=hidden;rotatable=0;points=[[0,0.5],[1,0.5]];portConstraint=eastwest;whiteSpace=wrap;html=1;" vertex="1" parent="dPNc5c39EvYprp-qF2Lc-15">
          <mxGeometry y="52" width="325" height="26" as="geometry" />
        </mxCell>
        <mxCell id="dPNc5c39EvYprp-qF2Lc-20" value="name - varchar(255)" style="text;strokeColor=none;fillColor=none;align=left;verticalAlign=top;spacingLeft=4;spacingRight=4;overflow=hidden;rotatable=0;points=[[0,0.5],[1,0.5]];portConstraint=eastwest;whiteSpace=wrap;html=1;" vertex="1" parent="dPNc5c39EvYprp-qF2Lc-15">
          <mxGeometry y="78" width="325" height="26" as="geometry" />
        </mxCell>
        <mxCell id="dPNc5c39EvYprp-qF2Lc-21" value="column_name - varchar(255)" style="text;strokeColor=none;fillColor=none;align=left;verticalAlign=top;spacingLeft=4;spacingRight=4;overflow=hidden;rotatable=0;points=[[0,0.5],[1,0.5]];portConstraint=eastwest;whiteSpace=wrap;html=1;" vertex="1" parent="dPNc5c39EvYprp-qF2Lc-15">
          <mxGeometry y="104" width="325" height="26" as="geometry" />
        </mxCell>
        <mxCell id="dPNc5c39EvYprp-qF2Lc-22" value="data_fomat -varchar(255)" style="text;strokeColor=none;fillColor=none;align=left;verticalAlign=top;spacingLeft=4;spacingRight=4;overflow=hidden;rotatable=0;points=[[0,0.5],[1,0.5]];portConstraint=eastwest;whiteSpace=wrap;html=1;" vertex="1" parent="dPNc5c39EvYprp-qF2Lc-15">
          <mxGeometry y="130" width="325" height="26" as="geometry" />
        </mxCell>
        <mxCell id="dPNc5c39EvYprp-qF2Lc-23" value="file_save - Timestamp" style="text;strokeColor=none;fillColor=none;align=left;verticalAlign=top;spacingLeft=4;spacingRight=4;overflow=hidden;rotatable=0;points=[[0,0.5],[1,0.5]];portConstraint=eastwest;whiteSpace=wrap;html=1;" vertex="1" parent="dPNc5c39EvYprp-qF2Lc-15">
          <mxGeometry y="156" width="325" height="26" as="geometry" />
        </mxCell>
        <mxCell id="dPNc5c39EvYprp-qF2Lc-24" value="dir_save - varchar(255)" style="text;strokeColor=none;fillColor=none;align=left;verticalAlign=top;spacingLeft=4;spacingRight=4;overflow=hidden;rotatable=0;points=[[0,0.5],[1,0.5]];portConstraint=eastwest;whiteSpace=wrap;html=1;" vertex="1" parent="dPNc5c39EvYprp-qF2Lc-15">
          <mxGeometry y="182" width="325" height="26" as="geometry" />
        </mxCell>
        <mxCell id="dPNc5c39EvYprp-qF2Lc-25" value="dir_achive - varchar(255)" style="text;strokeColor=none;fillColor=none;align=left;verticalAlign=top;spacingLeft=4;spacingRight=4;overflow=hidden;rotatable=0;points=[[0,0.5],[1,0.5]];portConstraint=eastwest;whiteSpace=wrap;html=1;" vertex="1" parent="dPNc5c39EvYprp-qF2Lc-15">
          <mxGeometry y="208" width="325" height="26" as="geometry" />
        </mxCell>
        <mxCell id="dPNc5c39EvYprp-qF2Lc-26" value="note -text" style="text;strokeColor=none;fillColor=none;align=left;verticalAlign=top;spacingLeft=4;spacingRight=4;overflow=hidden;rotatable=0;points=[[0,0.5],[1,0.5]];portConstraint=eastwest;whiteSpace=wrap;html=1;" vertex="1" parent="dPNc5c39EvYprp-qF2Lc-15">
          <mxGeometry y="234" width="325" height="26" as="geometry" />
        </mxCell>
        <mxCell id="dPNc5c39EvYprp-qF2Lc-27" value="status - varchar(255)" style="text;strokeColor=none;fillColor=none;align=left;verticalAlign=top;spacingLeft=4;spacingRight=4;overflow=hidden;rotatable=0;points=[[0,0.5],[1,0.5]];portConstraint=eastwest;whiteSpace=wrap;html=1;" vertex="1" parent="dPNc5c39EvYprp-qF2Lc-15">
          <mxGeometry y="260" width="325" height="26" as="geometry" />
        </mxCell>
        <mxCell id="dPNc5c39EvYprp-qF2Lc-28" value="create_at - Timestamp" style="text;strokeColor=none;fillColor=none;align=left;verticalAlign=top;spacingLeft=4;spacingRight=4;overflow=hidden;rotatable=0;points=[[0,0.5],[1,0.5]];portConstraint=eastwest;whiteSpace=wrap;html=1;" vertex="1" parent="dPNc5c39EvYprp-qF2Lc-15">
          <mxGeometry y="286" width="325" height="26" as="geometry" />
        </mxCell>
        <mxCell id="dPNc5c39EvYprp-qF2Lc-29" value="update_at - Timestamp" style="text;strokeColor=none;fillColor=none;align=left;verticalAlign=top;spacingLeft=4;spacingRight=4;overflow=hidden;rotatable=0;points=[[0,0.5],[1,0.5]];portConstraint=eastwest;whiteSpace=wrap;html=1;" vertex="1" parent="dPNc5c39EvYprp-qF2Lc-15">
          <mxGeometry y="312" width="325" height="26" as="geometry" />
        </mxCell>
        <mxCell id="dPNc5c39EvYprp-qF2Lc-30" value="create_by - varchar(255)" style="text;strokeColor=none;fillColor=none;align=left;verticalAlign=top;spacingLeft=4;spacingRight=4;overflow=hidden;rotatable=0;points=[[0,0.5],[1,0.5]];portConstraint=eastwest;whiteSpace=wrap;html=1;" vertex="1" parent="dPNc5c39EvYprp-qF2Lc-15">
          <mxGeometry y="338" width="325" height="26" as="geometry" />
        </mxCell>
        <mxCell id="dPNc5c39EvYprp-qF2Lc-18" value="update_by - varchar(255)" style="text;strokeColor=none;fillColor=none;align=left;verticalAlign=top;spacingLeft=4;spacingRight=4;overflow=hidden;rotatable=0;points=[[0,0.5],[1,0.5]];portConstraint=eastwest;whiteSpace=wrap;html=1;" vertex="1" parent="dPNc5c39EvYprp-qF2Lc-15">
          <mxGeometry y="364" width="325" height="26" as="geometry" />
        </mxCell>
        <mxCell id="dPNc5c39EvYprp-qF2Lc-31" style="edgeStyle=orthogonalEdgeStyle;rounded=0;orthogonalLoop=1;jettySize=auto;html=1;startArrow=ERoneToMany;startFill=0;endArrow=ERmandOne;endFill=0;" edge="1" parent="1" source="ubIO18NdrNsZvKzKsq_i-2" target="dPNc5c39EvYprp-qF2Lc-2">
          <mxGeometry relative="1" as="geometry" />
        </mxCell>
        <mxCell id="dPNc5c39EvYprp-qF2Lc-32" style="edgeStyle=orthogonalEdgeStyle;rounded=0;orthogonalLoop=1;jettySize=auto;html=1;entryX=0;entryY=0.5;entryDx=0;entryDy=0;endArrow=ERmandOne;endFill=0;startArrow=ERoneToMany;startFill=0;" edge="1" parent="1" source="dPNc5c39EvYprp-qF2Lc-17" target="dPNc5c39EvYprp-qF2Lc-2">
          <mxGeometry relative="1" as="geometry" />
        </mxCell>
      </root>
    </mxGraphModel>
  </diagram>
  <diagram id="HSD0n1mG_GESFLazKYmA" name="DBNew">
    <mxGraphModel grid="1" page="1" gridSize="10" guides="1" tooltips="1" connect="1" arrows="1" fold="1" pageScale="1" pageWidth="850" pageHeight="1100" math="0" shadow="0">
      <root>
        <mxCell id="0" />
        <mxCell id="1" parent="0" />
        <mxCell id="S4EsJn5eR2sjhfqs9mal-1" value="brandDim" style="shape=table;startSize=20;container=1;collapsible=1;childLayout=tableLayout;fixedRows=1;rowLines=0;fontStyle=1;align=center;resizeLast=1;html=1;" vertex="1" parent="1">
          <mxGeometry x="500" y="-710" width="180" height="150" as="geometry" />
        </mxCell>
        <mxCell id="S4EsJn5eR2sjhfqs9mal-2" value="" style="shape=tableRow;horizontal=0;startSize=0;swimlaneHead=0;swimlaneBody=0;fillColor=none;collapsible=0;dropTarget=0;points=[[0,0.5],[1,0.5]];portConstraint=eastwest;top=0;left=0;right=0;bottom=1;" vertex="1" parent="S4EsJn5eR2sjhfqs9mal-1">
          <mxGeometry y="20" width="180" height="30" as="geometry" />
        </mxCell>
        <mxCell id="S4EsJn5eR2sjhfqs9mal-3" value="PK" style="shape=partialRectangle;connectable=0;fillColor=none;top=0;left=0;bottom=0;right=0;fontStyle=1;overflow=hidden;whiteSpace=wrap;html=1;" vertex="1" parent="S4EsJn5eR2sjhfqs9mal-2">
          <mxGeometry width="30" height="30" as="geometry">
            <mxRectangle width="30" height="30" as="alternateBounds" />
          </mxGeometry>
        </mxCell>
        <mxCell id="S4EsJn5eR2sjhfqs9mal-4" value="brand_id" style="shape=partialRectangle;connectable=0;fillColor=none;top=0;left=0;bottom=0;right=0;align=left;spacingLeft=6;fontStyle=5;overflow=hidden;whiteSpace=wrap;html=1;" vertex="1" parent="S4EsJn5eR2sjhfqs9mal-2">
          <mxGeometry x="30" width="150" height="30" as="geometry">
            <mxRectangle width="150" height="30" as="alternateBounds" />
          </mxGeometry>
        </mxCell>
        <mxCell id="S4EsJn5eR2sjhfqs9mal-5" value="" style="shape=tableRow;horizontal=0;startSize=0;swimlaneHead=0;swimlaneBody=0;fillColor=none;collapsible=0;dropTarget=0;points=[[0,0.5],[1,0.5]];portConstraint=eastwest;top=0;left=0;right=0;bottom=0;" vertex="1" parent="S4EsJn5eR2sjhfqs9mal-1">
          <mxGeometry y="50" width="180" height="30" as="geometry" />
        </mxCell>
        <mxCell id="S4EsJn5eR2sjhfqs9mal-6" value="" style="shape=partialRectangle;connectable=0;fillColor=none;top=0;left=0;bottom=0;right=0;editable=1;overflow=hidden;whiteSpace=wrap;html=1;" vertex="1" parent="S4EsJn5eR2sjhfqs9mal-5">
          <mxGeometry width="30" height="30" as="geometry">
            <mxRectangle width="30" height="30" as="alternateBounds" />
          </mxGeometry>
        </mxCell>
        <mxCell id="S4EsJn5eR2sjhfqs9mal-7" value="brand_name varchar(255)" style="shape=partialRectangle;connectable=0;fillColor=none;top=0;left=0;bottom=0;right=0;align=left;spacingLeft=6;overflow=hidden;whiteSpace=wrap;html=1;" vertex="1" parent="S4EsJn5eR2sjhfqs9mal-5">
          <mxGeometry x="30" width="150" height="30" as="geometry">
            <mxRectangle width="150" height="30" as="alternateBounds" />
          </mxGeometry>
        </mxCell>
        <mxCell id="S4EsJn5eR2sjhfqs9mal-8" value="" style="shape=tableRow;horizontal=0;startSize=0;swimlaneHead=0;swimlaneBody=0;fillColor=none;collapsible=0;dropTarget=0;points=[[0,0.5],[1,0.5]];portConstraint=eastwest;top=0;left=0;right=0;bottom=0;" vertex="1" parent="S4EsJn5eR2sjhfqs9mal-1">
          <mxGeometry y="80" width="180" height="30" as="geometry" />
        </mxCell>
        <mxCell id="S4EsJn5eR2sjhfqs9mal-9" value="" style="shape=partialRectangle;connectable=0;fillColor=none;top=0;left=0;bottom=0;right=0;editable=1;overflow=hidden;whiteSpace=wrap;html=1;" vertex="1" parent="S4EsJn5eR2sjhfqs9mal-8">
          <mxGeometry width="30" height="30" as="geometry">
            <mxRectangle width="30" height="30" as="alternateBounds" />
          </mxGeometry>
        </mxCell>
        <mxCell id="S4EsJn5eR2sjhfqs9mal-10" value="Row 2" style="shape=partialRectangle;connectable=0;fillColor=none;top=0;left=0;bottom=0;right=0;align=left;spacingLeft=6;overflow=hidden;whiteSpace=wrap;html=1;" vertex="1" parent="S4EsJn5eR2sjhfqs9mal-8">
          <mxGeometry x="30" width="150" height="30" as="geometry">
            <mxRectangle width="150" height="30" as="alternateBounds" />
          </mxGeometry>
        </mxCell>
        <mxCell id="S4EsJn5eR2sjhfqs9mal-11" value="" style="shape=tableRow;horizontal=0;startSize=0;swimlaneHead=0;swimlaneBody=0;fillColor=none;collapsible=0;dropTarget=0;points=[[0,0.5],[1,0.5]];portConstraint=eastwest;top=0;left=0;right=0;bottom=0;" vertex="1" parent="S4EsJn5eR2sjhfqs9mal-1">
          <mxGeometry y="110" width="180" height="30" as="geometry" />
        </mxCell>
        <mxCell id="S4EsJn5eR2sjhfqs9mal-12" value="" style="shape=partialRectangle;connectable=0;fillColor=none;top=0;left=0;bottom=0;right=0;editable=1;overflow=hidden;whiteSpace=wrap;html=1;" vertex="1" parent="S4EsJn5eR2sjhfqs9mal-11">
          <mxGeometry width="30" height="30" as="geometry">
            <mxRectangle width="30" height="30" as="alternateBounds" />
          </mxGeometry>
        </mxCell>
        <mxCell id="S4EsJn5eR2sjhfqs9mal-13" value="Row 3" style="shape=partialRectangle;connectable=0;fillColor=none;top=0;left=0;bottom=0;right=0;align=left;spacingLeft=6;overflow=hidden;whiteSpace=wrap;html=1;" vertex="1" parent="S4EsJn5eR2sjhfqs9mal-11">
          <mxGeometry x="30" width="150" height="30" as="geometry">
            <mxRectangle width="150" height="30" as="alternateBounds" />
          </mxGeometry>
        </mxCell>
        <mxCell id="S4EsJn5eR2sjhfqs9mal-40" value="typeDim" style="shape=table;startSize=30;container=1;collapsible=1;childLayout=tableLayout;fixedRows=1;rowLines=0;fontStyle=1;align=center;resizeLast=1;html=1;" vertex="1" parent="1">
          <mxGeometry x="500" y="-820" width="180" height="90" as="geometry" />
        </mxCell>
        <mxCell id="S4EsJn5eR2sjhfqs9mal-41" value="" style="shape=tableRow;horizontal=0;startSize=0;swimlaneHead=0;swimlaneBody=0;fillColor=none;collapsible=0;dropTarget=0;points=[[0,0.5],[1,0.5]];portConstraint=eastwest;top=0;left=0;right=0;bottom=1;" vertex="1" parent="S4EsJn5eR2sjhfqs9mal-40">
          <mxGeometry y="30" width="180" height="30" as="geometry" />
        </mxCell>
        <mxCell id="S4EsJn5eR2sjhfqs9mal-42" value="PK" style="shape=partialRectangle;connectable=0;fillColor=none;top=0;left=0;bottom=0;right=0;fontStyle=1;overflow=hidden;whiteSpace=wrap;html=1;" vertex="1" parent="S4EsJn5eR2sjhfqs9mal-41">
          <mxGeometry width="30" height="30" as="geometry">
            <mxRectangle width="30" height="30" as="alternateBounds" />
          </mxGeometry>
        </mxCell>
        <mxCell id="S4EsJn5eR2sjhfqs9mal-43" value="id" style="shape=partialRectangle;connectable=0;fillColor=none;top=0;left=0;bottom=0;right=0;align=left;spacingLeft=6;fontStyle=5;overflow=hidden;whiteSpace=wrap;html=1;" vertex="1" parent="S4EsJn5eR2sjhfqs9mal-41">
          <mxGeometry x="30" width="150" height="30" as="geometry">
            <mxRectangle width="150" height="30" as="alternateBounds" />
          </mxGeometry>
        </mxCell>
        <mxCell id="S4EsJn5eR2sjhfqs9mal-44" value="" style="shape=tableRow;horizontal=0;startSize=0;swimlaneHead=0;swimlaneBody=0;fillColor=none;collapsible=0;dropTarget=0;points=[[0,0.5],[1,0.5]];portConstraint=eastwest;top=0;left=0;right=0;bottom=0;" vertex="1" parent="S4EsJn5eR2sjhfqs9mal-40">
          <mxGeometry y="60" width="180" height="30" as="geometry" />
        </mxCell>
        <mxCell id="S4EsJn5eR2sjhfqs9mal-45" value="" style="shape=partialRectangle;connectable=0;fillColor=none;top=0;left=0;bottom=0;right=0;editable=1;overflow=hidden;whiteSpace=wrap;html=1;" vertex="1" parent="S4EsJn5eR2sjhfqs9mal-44">
          <mxGeometry width="30" height="30" as="geometry">
            <mxRectangle width="30" height="30" as="alternateBounds" />
          </mxGeometry>
        </mxCell>
        <mxCell id="S4EsJn5eR2sjhfqs9mal-46" value="type_name varchar(255)" style="shape=partialRectangle;connectable=0;fillColor=none;top=0;left=0;bottom=0;right=0;align=left;spacingLeft=6;overflow=hidden;whiteSpace=wrap;html=1;" vertex="1" parent="S4EsJn5eR2sjhfqs9mal-44">
          <mxGeometry x="30" width="150" height="30" as="geometry">
            <mxRectangle width="150" height="30" as="alternateBounds" />
          </mxGeometry>
        </mxCell>
        <mxCell id="S4EsJn5eR2sjhfqs9mal-79" value="priceFact" style="shape=table;startSize=30;container=1;collapsible=1;childLayout=tableLayout;fixedRows=1;rowLines=0;fontStyle=1;align=center;resizeLast=1;html=1;" vertex="1" parent="1">
          <mxGeometry x="110" y="-890" width="270" height="260" as="geometry" />
        </mxCell>
        <mxCell id="S4EsJn5eR2sjhfqs9mal-80" value="" style="shape=tableRow;horizontal=0;startSize=0;swimlaneHead=0;swimlaneBody=0;fillColor=none;collapsible=0;dropTarget=0;points=[[0,0.5],[1,0.5]];portConstraint=eastwest;top=0;left=0;right=0;bottom=1;" vertex="1" parent="S4EsJn5eR2sjhfqs9mal-79">
          <mxGeometry y="30" width="270" height="30" as="geometry" />
        </mxCell>
        <mxCell id="S4EsJn5eR2sjhfqs9mal-81" value="PK" style="shape=partialRectangle;connectable=0;fillColor=none;top=0;left=0;bottom=0;right=0;fontStyle=1;overflow=hidden;whiteSpace=wrap;html=1;" vertex="1" parent="S4EsJn5eR2sjhfqs9mal-80">
          <mxGeometry width="30" height="30" as="geometry">
            <mxRectangle width="30" height="30" as="alternateBounds" />
          </mxGeometry>
        </mxCell>
        <mxCell id="S4EsJn5eR2sjhfqs9mal-82" value="id Serial" style="shape=partialRectangle;connectable=0;fillColor=none;top=0;left=0;bottom=0;right=0;align=left;spacingLeft=6;fontStyle=5;overflow=hidden;whiteSpace=wrap;html=1;" vertex="1" parent="S4EsJn5eR2sjhfqs9mal-80">
          <mxGeometry x="30" width="240" height="30" as="geometry">
            <mxRectangle width="240" height="30" as="alternateBounds" />
          </mxGeometry>
        </mxCell>
        <mxCell id="S4EsJn5eR2sjhfqs9mal-83" value="" style="shape=tableRow;horizontal=0;startSize=0;swimlaneHead=0;swimlaneBody=0;fillColor=none;collapsible=0;dropTarget=0;points=[[0,0.5],[1,0.5]];portConstraint=eastwest;top=0;left=0;right=0;bottom=0;" vertex="1" parent="S4EsJn5eR2sjhfqs9mal-79">
          <mxGeometry y="60" width="270" height="30" as="geometry" />
        </mxCell>
        <mxCell id="S4EsJn5eR2sjhfqs9mal-84" value="" style="shape=partialRectangle;connectable=0;fillColor=none;top=0;left=0;bottom=0;right=0;editable=1;overflow=hidden;whiteSpace=wrap;html=1;" vertex="1" parent="S4EsJn5eR2sjhfqs9mal-83">
          <mxGeometry width="30" height="30" as="geometry">
            <mxRectangle width="30" height="30" as="alternateBounds" />
          </mxGeometry>
        </mxCell>
        <mxCell id="S4EsJn5eR2sjhfqs9mal-85" value="model_id int" style="shape=partialRectangle;connectable=0;fillColor=none;top=0;left=0;bottom=0;right=0;align=left;spacingLeft=6;overflow=hidden;whiteSpace=wrap;html=1;" vertex="1" parent="S4EsJn5eR2sjhfqs9mal-83">
          <mxGeometry x="30" width="240" height="30" as="geometry">
            <mxRectangle width="240" height="30" as="alternateBounds" />
          </mxGeometry>
        </mxCell>
        <mxCell id="-vHnxcomdBp00i1czS1j-28" value="" style="shape=tableRow;horizontal=0;startSize=0;swimlaneHead=0;swimlaneBody=0;fillColor=none;collapsible=0;dropTarget=0;points=[[0,0.5],[1,0.5]];portConstraint=eastwest;top=0;left=0;right=0;bottom=0;" vertex="1" parent="S4EsJn5eR2sjhfqs9mal-79">
          <mxGeometry y="90" width="270" height="30" as="geometry" />
        </mxCell>
        <mxCell id="-vHnxcomdBp00i1czS1j-29" value="" style="shape=partialRectangle;connectable=0;fillColor=none;top=0;left=0;bottom=0;right=0;editable=1;overflow=hidden;whiteSpace=wrap;html=1;" vertex="1" parent="-vHnxcomdBp00i1czS1j-28">
          <mxGeometry width="30" height="30" as="geometry">
            <mxRectangle width="30" height="30" as="alternateBounds" />
          </mxGeometry>
        </mxCell>
        <mxCell id="-vHnxcomdBp00i1czS1j-30" value="type_id int" style="shape=partialRectangle;connectable=0;fillColor=none;top=0;left=0;bottom=0;right=0;align=left;spacingLeft=6;overflow=hidden;whiteSpace=wrap;html=1;" vertex="1" parent="-vHnxcomdBp00i1czS1j-28">
          <mxGeometry x="30" width="240" height="30" as="geometry">
            <mxRectangle width="240" height="30" as="alternateBounds" />
          </mxGeometry>
        </mxCell>
        <mxCell id="S4EsJn5eR2sjhfqs9mal-86" value="" style="shape=tableRow;horizontal=0;startSize=0;swimlaneHead=0;swimlaneBody=0;fillColor=none;collapsible=0;dropTarget=0;points=[[0,0.5],[1,0.5]];portConstraint=eastwest;top=0;left=0;right=0;bottom=0;" vertex="1" parent="S4EsJn5eR2sjhfqs9mal-79">
          <mxGeometry y="120" width="270" height="30" as="geometry" />
        </mxCell>
        <mxCell id="S4EsJn5eR2sjhfqs9mal-87" value="" style="shape=partialRectangle;connectable=0;fillColor=none;top=0;left=0;bottom=0;right=0;editable=1;overflow=hidden;whiteSpace=wrap;html=1;" vertex="1" parent="S4EsJn5eR2sjhfqs9mal-86">
          <mxGeometry width="30" height="30" as="geometry">
            <mxRectangle width="30" height="30" as="alternateBounds" />
          </mxGeometry>
        </mxCell>
        <mxCell id="S4EsJn5eR2sjhfqs9mal-88" value="brand_id varchar(255)" style="shape=partialRectangle;connectable=0;fillColor=none;top=0;left=0;bottom=0;right=0;align=left;spacingLeft=6;overflow=hidden;whiteSpace=wrap;html=1;" vertex="1" parent="S4EsJn5eR2sjhfqs9mal-86">
          <mxGeometry x="30" width="240" height="30" as="geometry">
            <mxRectangle width="240" height="30" as="alternateBounds" />
          </mxGeometry>
        </mxCell>
        <mxCell id="S4EsJn5eR2sjhfqs9mal-92" value="" style="shape=tableRow;horizontal=0;startSize=0;swimlaneHead=0;swimlaneBody=0;fillColor=none;collapsible=0;dropTarget=0;points=[[0,0.5],[1,0.5]];portConstraint=eastwest;top=0;left=0;right=0;bottom=0;" vertex="1" parent="S4EsJn5eR2sjhfqs9mal-79">
          <mxGeometry y="150" width="270" height="30" as="geometry" />
        </mxCell>
        <mxCell id="S4EsJn5eR2sjhfqs9mal-93" value="" style="shape=partialRectangle;connectable=0;fillColor=none;top=0;left=0;bottom=0;right=0;editable=1;overflow=hidden;whiteSpace=wrap;html=1;" vertex="1" parent="S4EsJn5eR2sjhfqs9mal-92">
          <mxGeometry width="30" height="30" as="geometry">
            <mxRectangle width="30" height="30" as="alternateBounds" />
          </mxGeometry>
        </mxCell>
        <mxCell id="S4EsJn5eR2sjhfqs9mal-94" value="price float" style="shape=partialRectangle;connectable=0;fillColor=none;top=0;left=0;bottom=0;right=0;align=left;spacingLeft=6;overflow=hidden;whiteSpace=wrap;html=1;" vertex="1" parent="S4EsJn5eR2sjhfqs9mal-92">
          <mxGeometry x="30" width="240" height="30" as="geometry">
            <mxRectangle width="240" height="30" as="alternateBounds" />
          </mxGeometry>
        </mxCell>
        <mxCell id="S4EsJn5eR2sjhfqs9mal-95" value="" style="shape=tableRow;horizontal=0;startSize=0;swimlaneHead=0;swimlaneBody=0;fillColor=none;collapsible=0;dropTarget=0;points=[[0,0.5],[1,0.5]];portConstraint=eastwest;top=0;left=0;right=0;bottom=0;" vertex="1" parent="S4EsJn5eR2sjhfqs9mal-79">
          <mxGeometry y="180" width="270" height="20" as="geometry" />
        </mxCell>
        <mxCell id="S4EsJn5eR2sjhfqs9mal-96" value="" style="shape=partialRectangle;connectable=0;fillColor=none;top=0;left=0;bottom=0;right=0;editable=1;overflow=hidden;whiteSpace=wrap;html=1;" vertex="1" parent="S4EsJn5eR2sjhfqs9mal-95">
          <mxGeometry width="30" height="20" as="geometry">
            <mxRectangle width="30" height="20" as="alternateBounds" />
          </mxGeometry>
        </mxCell>
        <mxCell id="S4EsJn5eR2sjhfqs9mal-97" value="engine_capacity varchar(255)" style="shape=partialRectangle;connectable=0;fillColor=none;top=0;left=0;bottom=0;right=0;align=left;spacingLeft=6;overflow=hidden;whiteSpace=wrap;html=1;" vertex="1" parent="S4EsJn5eR2sjhfqs9mal-95">
          <mxGeometry x="30" width="240" height="20" as="geometry">
            <mxRectangle width="240" height="20" as="alternateBounds" />
          </mxGeometry>
        </mxCell>
        <mxCell id="S4EsJn5eR2sjhfqs9mal-101" value="" style="shape=tableRow;horizontal=0;startSize=0;swimlaneHead=0;swimlaneBody=0;fillColor=none;collapsible=0;dropTarget=0;points=[[0,0.5],[1,0.5]];portConstraint=eastwest;top=0;left=0;right=0;bottom=0;" vertex="1" parent="S4EsJn5eR2sjhfqs9mal-79">
          <mxGeometry y="200" width="270" height="30" as="geometry" />
        </mxCell>
        <mxCell id="S4EsJn5eR2sjhfqs9mal-102" value="" style="shape=partialRectangle;connectable=0;fillColor=none;top=0;left=0;bottom=0;right=0;editable=1;overflow=hidden;whiteSpace=wrap;html=1;" vertex="1" parent="S4EsJn5eR2sjhfqs9mal-101">
          <mxGeometry width="30" height="30" as="geometry">
            <mxRectangle width="30" height="30" as="alternateBounds" />
          </mxGeometry>
        </mxCell>
        <mxCell id="S4EsJn5eR2sjhfqs9mal-103" value="created_at Timestamp" style="shape=partialRectangle;connectable=0;fillColor=none;top=0;left=0;bottom=0;right=0;align=left;spacingLeft=6;overflow=hidden;whiteSpace=wrap;html=1;" vertex="1" parent="S4EsJn5eR2sjhfqs9mal-101">
          <mxGeometry x="30" width="240" height="30" as="geometry">
            <mxRectangle width="240" height="30" as="alternateBounds" />
          </mxGeometry>
        </mxCell>
        <mxCell id="S4EsJn5eR2sjhfqs9mal-89" value="" style="shape=tableRow;horizontal=0;startSize=0;swimlaneHead=0;swimlaneBody=0;fillColor=none;collapsible=0;dropTarget=0;points=[[0,0.5],[1,0.5]];portConstraint=eastwest;top=0;left=0;right=0;bottom=0;" vertex="1" parent="S4EsJn5eR2sjhfqs9mal-79">
          <mxGeometry y="230" width="270" height="30" as="geometry" />
        </mxCell>
        <mxCell id="S4EsJn5eR2sjhfqs9mal-90" value="" style="shape=partialRectangle;connectable=0;fillColor=none;top=0;left=0;bottom=0;right=0;editable=1;overflow=hidden;whiteSpace=wrap;html=1;" vertex="1" parent="S4EsJn5eR2sjhfqs9mal-89">
          <mxGeometry width="30" height="30" as="geometry">
            <mxRectangle width="30" height="30" as="alternateBounds" />
          </mxGeometry>
        </mxCell>
        <mxCell id="S4EsJn5eR2sjhfqs9mal-91" value="source varchar(255)" style="shape=partialRectangle;connectable=0;fillColor=none;top=0;left=0;bottom=0;right=0;align=left;spacingLeft=6;overflow=hidden;whiteSpace=wrap;html=1;" vertex="1" parent="S4EsJn5eR2sjhfqs9mal-89">
          <mxGeometry x="30" width="240" height="30" as="geometry">
            <mxRectangle width="240" height="30" as="alternateBounds" />
          </mxGeometry>
        </mxCell>
        <mxCell id="-vHnxcomdBp00i1czS1j-27" style="edgeStyle=orthogonalEdgeStyle;rounded=0;orthogonalLoop=1;jettySize=auto;html=1;entryX=0;entryY=0.5;entryDx=0;entryDy=0;startArrow=ERmany;startFill=0;endArrow=ERmandOne;endFill=0;" edge="1" parent="1" source="S4EsJn5eR2sjhfqs9mal-86" target="S4EsJn5eR2sjhfqs9mal-2">
          <mxGeometry relative="1" as="geometry" />
        </mxCell>
        <mxCell id="-vHnxcomdBp00i1czS1j-31" style="edgeStyle=orthogonalEdgeStyle;rounded=0;orthogonalLoop=1;jettySize=auto;html=1;startArrow=ERmany;startFill=0;endArrow=ERmandOne;endFill=0;" edge="1" parent="1" source="-vHnxcomdBp00i1czS1j-28" target="S4EsJn5eR2sjhfqs9mal-41">
          <mxGeometry relative="1" as="geometry" />
        </mxCell>
        <mxCell id="-vHnxcomdBp00i1czS1j-64" value="motobikeDim" style="shape=table;startSize=30;container=1;collapsible=1;childLayout=tableLayout;fixedRows=1;rowLines=0;fontStyle=1;align=center;resizeLast=1;html=1;" vertex="1" parent="1">
          <mxGeometry x="500" y="-1120" width="280" height="290" as="geometry" />
        </mxCell>
        <mxCell id="-vHnxcomdBp00i1czS1j-65" value="" style="shape=tableRow;horizontal=0;startSize=0;swimlaneHead=0;swimlaneBody=0;fillColor=none;collapsible=0;dropTarget=0;points=[[0,0.5],[1,0.5]];portConstraint=eastwest;top=0;left=0;right=0;bottom=1;" vertex="1" parent="-vHnxcomdBp00i1czS1j-64">
          <mxGeometry y="30" width="280" height="20" as="geometry" />
        </mxCell>
        <mxCell id="-vHnxcomdBp00i1czS1j-66" value="PK" style="shape=partialRectangle;connectable=0;fillColor=none;top=0;left=0;bottom=0;right=0;fontStyle=1;overflow=hidden;whiteSpace=wrap;html=1;" vertex="1" parent="-vHnxcomdBp00i1czS1j-65">
          <mxGeometry width="30" height="20" as="geometry">
            <mxRectangle width="30" height="20" as="alternateBounds" />
          </mxGeometry>
        </mxCell>
        <mxCell id="-vHnxcomdBp00i1czS1j-67" value="id Serial" style="shape=partialRectangle;connectable=0;fillColor=none;top=0;left=0;bottom=0;right=0;align=left;spacingLeft=6;fontStyle=5;overflow=hidden;whiteSpace=wrap;html=1;" vertex="1" parent="-vHnxcomdBp00i1czS1j-65">
          <mxGeometry x="30" width="250" height="20" as="geometry">
            <mxRectangle width="250" height="20" as="alternateBounds" />
          </mxGeometry>
        </mxCell>
        <mxCell id="-vHnxcomdBp00i1czS1j-68" value="" style="shape=tableRow;horizontal=0;startSize=0;swimlaneHead=0;swimlaneBody=0;fillColor=none;collapsible=0;dropTarget=0;points=[[0,0.5],[1,0.5]];portConstraint=eastwest;top=0;left=0;right=0;bottom=0;" vertex="1" parent="-vHnxcomdBp00i1czS1j-64">
          <mxGeometry y="50" width="280" height="30" as="geometry" />
        </mxCell>
        <mxCell id="-vHnxcomdBp00i1czS1j-69" value="" style="shape=partialRectangle;connectable=0;fillColor=none;top=0;left=0;bottom=0;right=0;editable=1;overflow=hidden;whiteSpace=wrap;html=1;" vertex="1" parent="-vHnxcomdBp00i1czS1j-68">
          <mxGeometry width="30" height="30" as="geometry">
            <mxRectangle width="30" height="30" as="alternateBounds" />
          </mxGeometry>
        </mxCell>
        <mxCell id="-vHnxcomdBp00i1czS1j-70" value="model_name nvarchar(255)" style="shape=partialRectangle;connectable=0;fillColor=none;top=0;left=0;bottom=0;right=0;align=left;spacingLeft=6;overflow=hidden;whiteSpace=wrap;html=1;" vertex="1" parent="-vHnxcomdBp00i1czS1j-68">
          <mxGeometry x="30" width="250" height="30" as="geometry">
            <mxRectangle width="250" height="30" as="alternateBounds" />
          </mxGeometry>
        </mxCell>
        <mxCell id="-vHnxcomdBp00i1czS1j-71" value="" style="shape=tableRow;horizontal=0;startSize=0;swimlaneHead=0;swimlaneBody=0;fillColor=none;collapsible=0;dropTarget=0;points=[[0,0.5],[1,0.5]];portConstraint=eastwest;top=0;left=0;right=0;bottom=0;" vertex="1" parent="-vHnxcomdBp00i1czS1j-64">
          <mxGeometry y="80" width="280" height="30" as="geometry" />
        </mxCell>
        <mxCell id="-vHnxcomdBp00i1czS1j-72" value="" style="shape=partialRectangle;connectable=0;fillColor=none;top=0;left=0;bottom=0;right=0;editable=1;overflow=hidden;whiteSpace=wrap;html=1;" vertex="1" parent="-vHnxcomdBp00i1czS1j-71">
          <mxGeometry width="30" height="30" as="geometry">
            <mxRectangle width="30" height="30" as="alternateBounds" />
          </mxGeometry>
        </mxCell>
        <mxCell id="-vHnxcomdBp00i1czS1j-73" value="colors varchar(255)" style="shape=partialRectangle;connectable=0;fillColor=none;top=0;left=0;bottom=0;right=0;align=left;spacingLeft=6;overflow=hidden;whiteSpace=wrap;html=1;" vertex="1" parent="-vHnxcomdBp00i1czS1j-71">
          <mxGeometry x="30" width="250" height="30" as="geometry">
            <mxRectangle width="250" height="30" as="alternateBounds" />
          </mxGeometry>
        </mxCell>
        <mxCell id="-vHnxcomdBp00i1czS1j-74" value="" style="shape=tableRow;horizontal=0;startSize=0;swimlaneHead=0;swimlaneBody=0;fillColor=none;collapsible=0;dropTarget=0;points=[[0,0.5],[1,0.5]];portConstraint=eastwest;top=0;left=0;right=0;bottom=0;" vertex="1" parent="-vHnxcomdBp00i1czS1j-64">
          <mxGeometry y="110" width="280" height="30" as="geometry" />
        </mxCell>
        <mxCell id="-vHnxcomdBp00i1czS1j-75" value="" style="shape=partialRectangle;connectable=0;fillColor=none;top=0;left=0;bottom=0;right=0;editable=1;overflow=hidden;whiteSpace=wrap;html=1;" vertex="1" parent="-vHnxcomdBp00i1czS1j-74">
          <mxGeometry width="30" height="30" as="geometry">
            <mxRectangle width="30" height="30" as="alternateBounds" />
          </mxGeometry>
        </mxCell>
        <mxCell id="-vHnxcomdBp00i1czS1j-76" value="features varchar(255)" style="shape=partialRectangle;connectable=0;fillColor=none;top=0;left=0;bottom=0;right=0;align=left;spacingLeft=6;overflow=hidden;whiteSpace=wrap;html=1;" vertex="1" parent="-vHnxcomdBp00i1czS1j-74">
          <mxGeometry x="30" width="250" height="30" as="geometry">
            <mxRectangle width="250" height="30" as="alternateBounds" />
          </mxGeometry>
        </mxCell>
        <mxCell id="-vHnxcomdBp00i1czS1j-77" value="" style="shape=tableRow;horizontal=0;startSize=0;swimlaneHead=0;swimlaneBody=0;fillColor=none;collapsible=0;dropTarget=0;points=[[0,0.5],[1,0.5]];portConstraint=eastwest;top=0;left=0;right=0;bottom=0;" vertex="1" parent="-vHnxcomdBp00i1czS1j-64">
          <mxGeometry y="140" width="280" height="30" as="geometry" />
        </mxCell>
        <mxCell id="-vHnxcomdBp00i1czS1j-78" value="" style="shape=partialRectangle;connectable=0;fillColor=none;top=0;left=0;bottom=0;right=0;editable=1;overflow=hidden;whiteSpace=wrap;html=1;" vertex="1" parent="-vHnxcomdBp00i1czS1j-77">
          <mxGeometry width="30" height="30" as="geometry">
            <mxRectangle width="30" height="30" as="alternateBounds" />
          </mxGeometry>
        </mxCell>
        <mxCell id="-vHnxcomdBp00i1czS1j-79" value="image varchar(255)" style="shape=partialRectangle;connectable=0;fillColor=none;top=0;left=0;bottom=0;right=0;align=left;spacingLeft=6;overflow=hidden;whiteSpace=wrap;html=1;" vertex="1" parent="-vHnxcomdBp00i1czS1j-77">
          <mxGeometry x="30" width="250" height="30" as="geometry">
            <mxRectangle width="250" height="30" as="alternateBounds" />
          </mxGeometry>
        </mxCell>
        <mxCell id="-vHnxcomdBp00i1czS1j-80" value="" style="shape=tableRow;horizontal=0;startSize=0;swimlaneHead=0;swimlaneBody=0;fillColor=none;collapsible=0;dropTarget=0;points=[[0,0.5],[1,0.5]];portConstraint=eastwest;top=0;left=0;right=0;bottom=0;" vertex="1" parent="-vHnxcomdBp00i1czS1j-64">
          <mxGeometry y="170" width="280" height="30" as="geometry" />
        </mxCell>
        <mxCell id="-vHnxcomdBp00i1czS1j-81" value="" style="shape=partialRectangle;connectable=0;fillColor=none;top=0;left=0;bottom=0;right=0;editable=1;overflow=hidden;whiteSpace=wrap;html=1;" vertex="1" parent="-vHnxcomdBp00i1czS1j-80">
          <mxGeometry width="30" height="30" as="geometry">
            <mxRectangle width="30" height="30" as="alternateBounds" />
          </mxGeometry>
        </mxCell>
        <mxCell id="-vHnxcomdBp00i1czS1j-82" value="create_at Timestamp" style="shape=partialRectangle;connectable=0;fillColor=none;top=0;left=0;bottom=0;right=0;align=left;spacingLeft=6;overflow=hidden;whiteSpace=wrap;html=1;" vertex="1" parent="-vHnxcomdBp00i1czS1j-80">
          <mxGeometry x="30" width="250" height="30" as="geometry">
            <mxRectangle width="250" height="30" as="alternateBounds" />
          </mxGeometry>
        </mxCell>
        <mxCell id="-vHnxcomdBp00i1czS1j-83" value="" style="shape=tableRow;horizontal=0;startSize=0;swimlaneHead=0;swimlaneBody=0;fillColor=none;collapsible=0;dropTarget=0;points=[[0,0.5],[1,0.5]];portConstraint=eastwest;top=0;left=0;right=0;bottom=0;" vertex="1" parent="-vHnxcomdBp00i1czS1j-64">
          <mxGeometry y="200" width="280" height="30" as="geometry" />
        </mxCell>
        <mxCell id="-vHnxcomdBp00i1czS1j-84" value="" style="shape=partialRectangle;connectable=0;fillColor=none;top=0;left=0;bottom=0;right=0;editable=1;overflow=hidden;whiteSpace=wrap;html=1;" vertex="1" parent="-vHnxcomdBp00i1czS1j-83">
          <mxGeometry width="30" height="30" as="geometry">
            <mxRectangle width="30" height="30" as="alternateBounds" />
          </mxGeometry>
        </mxCell>
        <mxCell id="-vHnxcomdBp00i1czS1j-85" value="update_at Timestamp" style="shape=partialRectangle;connectable=0;fillColor=none;top=0;left=0;bottom=0;right=0;align=left;spacingLeft=6;overflow=hidden;whiteSpace=wrap;html=1;" vertex="1" parent="-vHnxcomdBp00i1czS1j-83">
          <mxGeometry x="30" width="250" height="30" as="geometry">
            <mxRectangle width="250" height="30" as="alternateBounds" />
          </mxGeometry>
        </mxCell>
        <mxCell id="-vHnxcomdBp00i1czS1j-86" value="" style="shape=tableRow;horizontal=0;startSize=0;swimlaneHead=0;swimlaneBody=0;fillColor=none;collapsible=0;dropTarget=0;points=[[0,0.5],[1,0.5]];portConstraint=eastwest;top=0;left=0;right=0;bottom=0;" vertex="1" parent="-vHnxcomdBp00i1czS1j-64">
          <mxGeometry y="230" width="280" height="30" as="geometry" />
        </mxCell>
        <mxCell id="-vHnxcomdBp00i1czS1j-87" value="" style="shape=partialRectangle;connectable=0;fillColor=none;top=0;left=0;bottom=0;right=0;editable=1;overflow=hidden;whiteSpace=wrap;html=1;" vertex="1" parent="-vHnxcomdBp00i1czS1j-86">
          <mxGeometry width="30" height="30" as="geometry">
            <mxRectangle width="30" height="30" as="alternateBounds" />
          </mxGeometry>
        </mxCell>
        <mxCell id="-vHnxcomdBp00i1czS1j-88" value="create_by varchar(255)" style="shape=partialRectangle;connectable=0;fillColor=none;top=0;left=0;bottom=0;right=0;align=left;spacingLeft=6;overflow=hidden;whiteSpace=wrap;html=1;" vertex="1" parent="-vHnxcomdBp00i1czS1j-86">
          <mxGeometry x="30" width="250" height="30" as="geometry">
            <mxRectangle width="250" height="30" as="alternateBounds" />
          </mxGeometry>
        </mxCell>
        <mxCell id="-vHnxcomdBp00i1czS1j-89" value="" style="shape=tableRow;horizontal=0;startSize=0;swimlaneHead=0;swimlaneBody=0;fillColor=none;collapsible=0;dropTarget=0;points=[[0,0.5],[1,0.5]];portConstraint=eastwest;top=0;left=0;right=0;bottom=0;" vertex="1" parent="-vHnxcomdBp00i1czS1j-64">
          <mxGeometry y="260" width="280" height="30" as="geometry" />
        </mxCell>
        <mxCell id="-vHnxcomdBp00i1czS1j-90" value="" style="shape=partialRectangle;connectable=0;fillColor=none;top=0;left=0;bottom=0;right=0;editable=1;overflow=hidden;whiteSpace=wrap;html=1;" vertex="1" parent="-vHnxcomdBp00i1czS1j-89">
          <mxGeometry width="30" height="30" as="geometry">
            <mxRectangle width="30" height="30" as="alternateBounds" />
          </mxGeometry>
        </mxCell>
        <mxCell id="-vHnxcomdBp00i1czS1j-91" value="update_by varchar(255)" style="shape=partialRectangle;connectable=0;fillColor=none;top=0;left=0;bottom=0;right=0;align=left;spacingLeft=6;overflow=hidden;whiteSpace=wrap;html=1;" vertex="1" parent="-vHnxcomdBp00i1czS1j-89">
          <mxGeometry x="30" width="250" height="30" as="geometry">
            <mxRectangle width="250" height="30" as="alternateBounds" />
          </mxGeometry>
        </mxCell>
        <mxCell id="-vHnxcomdBp00i1czS1j-92" style="edgeStyle=orthogonalEdgeStyle;rounded=0;orthogonalLoop=1;jettySize=auto;html=1;entryX=0;entryY=0.5;entryDx=0;entryDy=0;startArrow=ERmany;startFill=0;endArrow=ERmandOne;endFill=0;" edge="1" parent="1" source="S4EsJn5eR2sjhfqs9mal-83" target="-vHnxcomdBp00i1czS1j-65">
          <mxGeometry relative="1" as="geometry" />
        </mxCell>
        <mxCell id="-vHnxcomdBp00i1czS1j-93" value="homeAggregate" style="shape=table;startSize=20;container=1;collapsible=1;childLayout=tableLayout;fixedRows=1;rowLines=0;fontStyle=1;align=center;resizeLast=1;html=1;rounded=0;" vertex="1" parent="1">
          <mxGeometry x="70" y="-520" width="270" height="250" as="geometry" />
        </mxCell>
        <mxCell id="-vHnxcomdBp00i1czS1j-94" value="" style="shape=tableRow;horizontal=0;startSize=0;swimlaneHead=0;swimlaneBody=0;fillColor=none;collapsible=0;dropTarget=0;points=[[0,0.5],[1,0.5]];portConstraint=eastwest;top=0;left=0;right=0;bottom=1;" vertex="1" parent="-vHnxcomdBp00i1czS1j-93">
          <mxGeometry y="20" width="270" height="40" as="geometry" />
        </mxCell>
        <mxCell id="-vHnxcomdBp00i1czS1j-95" value="PK" style="shape=partialRectangle;connectable=0;fillColor=none;top=0;left=0;bottom=0;right=0;fontStyle=1;overflow=hidden;whiteSpace=wrap;html=1;" vertex="1" parent="-vHnxcomdBp00i1czS1j-94">
          <mxGeometry width="30" height="40" as="geometry">
            <mxRectangle width="30" height="40" as="alternateBounds" />
          </mxGeometry>
        </mxCell>
        <mxCell id="-vHnxcomdBp00i1czS1j-96" value="id&lt;span style=&quot;&quot;&gt;&lt;span style=&quot;white-space: pre;&quot;&gt;&amp;nbsp;&amp;nbsp;&amp;nbsp;&amp;nbsp;&lt;/span&gt;&lt;/span&gt;SERIAL" style="shape=partialRectangle;connectable=0;fillColor=none;top=0;left=0;bottom=0;right=0;align=left;spacingLeft=6;fontStyle=5;overflow=hidden;whiteSpace=wrap;html=1;" vertex="1" parent="-vHnxcomdBp00i1czS1j-94">
          <mxGeometry x="30" width="240" height="40" as="geometry">
            <mxRectangle width="240" height="40" as="alternateBounds" />
          </mxGeometry>
        </mxCell>
        <mxCell id="-vHnxcomdBp00i1czS1j-97" value="" style="shape=tableRow;horizontal=0;startSize=0;swimlaneHead=0;swimlaneBody=0;fillColor=none;collapsible=0;dropTarget=0;points=[[0,0.5],[1,0.5]];portConstraint=eastwest;top=0;left=0;right=0;bottom=0;" vertex="1" parent="-vHnxcomdBp00i1czS1j-93">
          <mxGeometry y="60" width="270" height="30" as="geometry" />
        </mxCell>
        <mxCell id="-vHnxcomdBp00i1czS1j-98" value="" style="shape=partialRectangle;connectable=0;fillColor=none;top=0;left=0;bottom=0;right=0;editable=1;overflow=hidden;whiteSpace=wrap;html=1;" vertex="1" parent="-vHnxcomdBp00i1czS1j-97">
          <mxGeometry width="30" height="30" as="geometry">
            <mxRectangle width="30" height="30" as="alternateBounds" />
          </mxGeometry>
        </mxCell>
        <mxCell id="-vHnxcomdBp00i1czS1j-99" value="name_type&lt;span style=&quot;white-space: pre;&quot;&gt;&#x9;&lt;/span&gt;VARCHAR(500)" style="shape=partialRectangle;connectable=0;fillColor=none;top=0;left=0;bottom=0;right=0;align=left;spacingLeft=6;overflow=hidden;whiteSpace=wrap;html=1;" vertex="1" parent="-vHnxcomdBp00i1czS1j-97">
          <mxGeometry x="30" width="240" height="30" as="geometry">
            <mxRectangle width="240" height="30" as="alternateBounds" />
          </mxGeometry>
        </mxCell>
        <mxCell id="-vHnxcomdBp00i1czS1j-100" value="" style="shape=tableRow;horizontal=0;startSize=0;swimlaneHead=0;swimlaneBody=0;fillColor=none;collapsible=0;dropTarget=0;points=[[0,0.5],[1,0.5]];portConstraint=eastwest;top=0;left=0;right=0;bottom=0;" vertex="1" parent="-vHnxcomdBp00i1czS1j-93">
          <mxGeometry y="90" width="270" height="30" as="geometry" />
        </mxCell>
        <mxCell id="-vHnxcomdBp00i1czS1j-101" value="FK1" style="shape=partialRectangle;connectable=0;fillColor=none;top=0;left=0;bottom=0;right=0;editable=1;overflow=hidden;whiteSpace=wrap;html=1;" vertex="1" parent="-vHnxcomdBp00i1czS1j-100">
          <mxGeometry width="30" height="30" as="geometry">
            <mxRectangle width="30" height="30" as="alternateBounds" />
          </mxGeometry>
        </mxCell>
        <mxCell id="-vHnxcomdBp00i1czS1j-102" value="name&lt;span style=&quot;white-space: pre;&quot;&gt;&#x9;&lt;/span&gt;VARCHAR(500)" style="shape=partialRectangle;connectable=0;fillColor=none;top=0;left=0;bottom=0;right=0;align=left;spacingLeft=6;overflow=hidden;whiteSpace=wrap;html=1;" vertex="1" parent="-vHnxcomdBp00i1czS1j-100">
          <mxGeometry x="30" width="240" height="30" as="geometry">
            <mxRectangle width="240" height="30" as="alternateBounds" />
          </mxGeometry>
        </mxCell>
        <mxCell id="-vHnxcomdBp00i1czS1j-103" value="" style="shape=tableRow;horizontal=0;startSize=0;swimlaneHead=0;swimlaneBody=0;fillColor=none;collapsible=0;dropTarget=0;points=[[0,0.5],[1,0.5]];portConstraint=eastwest;top=0;left=0;right=0;bottom=0;" vertex="1" parent="-vHnxcomdBp00i1czS1j-93">
          <mxGeometry y="120" width="270" height="30" as="geometry" />
        </mxCell>
        <mxCell id="-vHnxcomdBp00i1czS1j-104" value="" style="shape=partialRectangle;connectable=0;fillColor=none;top=0;left=0;bottom=0;right=0;editable=1;overflow=hidden;whiteSpace=wrap;html=1;" vertex="1" parent="-vHnxcomdBp00i1czS1j-103">
          <mxGeometry width="30" height="30" as="geometry">
            <mxRectangle width="30" height="30" as="alternateBounds" />
          </mxGeometry>
        </mxCell>
        <mxCell id="-vHnxcomdBp00i1czS1j-105" value="image&amp;nbsp;&lt;span style=&quot;border-color: var(--border-color);&quot;&gt;&lt;span style=&quot;white-space: pre;&quot;&gt;&amp;nbsp;&amp;nbsp;&amp;nbsp;&amp;nbsp;&lt;/span&gt;&lt;/span&gt;VARCHAR(1000)" style="shape=partialRectangle;connectable=0;fillColor=none;top=0;left=0;bottom=0;right=0;align=left;spacingLeft=6;overflow=hidden;whiteSpace=wrap;html=1;" vertex="1" parent="-vHnxcomdBp00i1czS1j-103">
          <mxGeometry x="30" width="240" height="30" as="geometry">
            <mxRectangle width="240" height="30" as="alternateBounds" />
          </mxGeometry>
        </mxCell>
        <mxCell id="-vHnxcomdBp00i1czS1j-106" value="" style="shape=tableRow;horizontal=0;startSize=0;swimlaneHead=0;swimlaneBody=0;fillColor=none;collapsible=0;dropTarget=0;points=[[0,0.5],[1,0.5]];portConstraint=eastwest;top=0;left=0;right=0;bottom=0;" vertex="1" parent="-vHnxcomdBp00i1czS1j-93">
          <mxGeometry y="150" width="270" height="40" as="geometry" />
        </mxCell>
        <mxCell id="-vHnxcomdBp00i1czS1j-107" value="" style="shape=partialRectangle;connectable=0;fillColor=none;top=0;left=0;bottom=0;right=0;editable=1;overflow=hidden;whiteSpace=wrap;html=1;" vertex="1" parent="-vHnxcomdBp00i1czS1j-106">
          <mxGeometry width="30" height="40" as="geometry">
            <mxRectangle width="30" height="40" as="alternateBounds" />
          </mxGeometry>
        </mxCell>
        <mxCell id="-vHnxcomdBp00i1czS1j-108" value="description&lt;span style=&quot;white-space: pre;&quot;&gt;&#x9;&lt;/span&gt;TEXT" style="shape=partialRectangle;connectable=0;fillColor=none;top=0;left=0;bottom=0;right=0;align=left;spacingLeft=6;overflow=hidden;whiteSpace=wrap;html=1;" vertex="1" parent="-vHnxcomdBp00i1czS1j-106">
          <mxGeometry x="30" width="240" height="40" as="geometry">
            <mxRectangle width="240" height="40" as="alternateBounds" />
          </mxGeometry>
        </mxCell>
        <mxCell id="-vHnxcomdBp00i1czS1j-109" value="" style="shape=tableRow;horizontal=0;startSize=0;swimlaneHead=0;swimlaneBody=0;fillColor=none;collapsible=0;dropTarget=0;points=[[0,0.5],[1,0.5]];portConstraint=eastwest;top=0;left=0;right=0;bottom=0;" vertex="1" parent="-vHnxcomdBp00i1czS1j-93">
          <mxGeometry y="190" width="270" height="30" as="geometry" />
        </mxCell>
        <mxCell id="-vHnxcomdBp00i1czS1j-110" value="" style="shape=partialRectangle;connectable=0;fillColor=none;top=0;left=0;bottom=0;right=0;editable=1;overflow=hidden;whiteSpace=wrap;html=1;" vertex="1" parent="-vHnxcomdBp00i1czS1j-109">
          <mxGeometry width="30" height="30" as="geometry">
            <mxRectangle width="30" height="30" as="alternateBounds" />
          </mxGeometry>
        </mxCell>
        <mxCell id="-vHnxcomdBp00i1czS1j-111" value="name_author&lt;span style=&quot;white-space: pre;&quot;&gt;&#x9;&lt;/span&gt;&lt;span style=&quot;white-space: pre;&quot;&gt;&#x9;&lt;/span&gt;VARCHAR(500)" style="shape=partialRectangle;connectable=0;fillColor=none;top=0;left=0;bottom=0;right=0;align=left;spacingLeft=6;overflow=hidden;whiteSpace=wrap;html=1;" vertex="1" parent="-vHnxcomdBp00i1czS1j-109">
          <mxGeometry x="30" width="240" height="30" as="geometry">
            <mxRectangle width="240" height="30" as="alternateBounds" />
          </mxGeometry>
        </mxCell>
        <mxCell id="-vHnxcomdBp00i1czS1j-112" value="" style="shape=tableRow;horizontal=0;startSize=0;swimlaneHead=0;swimlaneBody=0;fillColor=none;collapsible=0;dropTarget=0;points=[[0,0.5],[1,0.5]];portConstraint=eastwest;top=0;left=0;right=0;bottom=0;" vertex="1" parent="-vHnxcomdBp00i1czS1j-93">
          <mxGeometry y="220" width="270" height="30" as="geometry" />
        </mxCell>
        <mxCell id="-vHnxcomdBp00i1czS1j-113" value="" style="shape=partialRectangle;connectable=0;fillColor=none;top=0;left=0;bottom=0;right=0;editable=1;overflow=hidden;whiteSpace=wrap;html=1;" vertex="1" parent="-vHnxcomdBp00i1czS1j-112">
          <mxGeometry width="30" height="30" as="geometry">
            <mxRectangle width="30" height="30" as="alternateBounds" />
          </mxGeometry>
        </mxCell>
        <mxCell id="-vHnxcomdBp00i1czS1j-114" value="day_up&lt;span style=&quot;white-space: pre;&quot;&gt;&#x9;&lt;/span&gt;&lt;span style=&quot;white-space: pre;&quot;&gt;&#x9;&lt;/span&gt;TIMESTAMP" style="shape=partialRectangle;connectable=0;fillColor=none;top=0;left=0;bottom=0;right=0;align=left;spacingLeft=6;overflow=hidden;whiteSpace=wrap;html=1;" vertex="1" parent="-vHnxcomdBp00i1czS1j-112">
          <mxGeometry x="30" width="240" height="30" as="geometry">
            <mxRectangle width="240" height="30" as="alternateBounds" />
          </mxGeometry>
        </mxCell>
        <mxCell id="-vHnxcomdBp00i1czS1j-115" value="detailNewAggregate" style="shape=table;startSize=20;container=1;collapsible=1;childLayout=tableLayout;fixedRows=1;rowLines=0;fontStyle=1;align=center;resizeLast=1;html=1;rounded=0;" vertex="1" parent="1">
          <mxGeometry x="430" y="-520" width="270" height="280" as="geometry" />
        </mxCell>
        <mxCell id="-vHnxcomdBp00i1czS1j-116" value="" style="shape=tableRow;horizontal=0;startSize=0;swimlaneHead=0;swimlaneBody=0;fillColor=none;collapsible=0;dropTarget=0;points=[[0,0.5],[1,0.5]];portConstraint=eastwest;top=0;left=0;right=0;bottom=1;" vertex="1" parent="-vHnxcomdBp00i1czS1j-115">
          <mxGeometry y="20" width="270" height="40" as="geometry" />
        </mxCell>
        <mxCell id="-vHnxcomdBp00i1czS1j-117" value="PK" style="shape=partialRectangle;connectable=0;fillColor=none;top=0;left=0;bottom=0;right=0;fontStyle=1;overflow=hidden;whiteSpace=wrap;html=1;" vertex="1" parent="-vHnxcomdBp00i1czS1j-116">
          <mxGeometry width="30" height="40" as="geometry">
            <mxRectangle width="30" height="40" as="alternateBounds" />
          </mxGeometry>
        </mxCell>
        <mxCell id="-vHnxcomdBp00i1czS1j-118" value="id&lt;span style=&quot;&quot;&gt;&lt;span style=&quot;white-space: pre;&quot;&gt;&amp;nbsp;&amp;nbsp;&amp;nbsp;&amp;nbsp;&lt;/span&gt;&lt;/span&gt;SERIAL" style="shape=partialRectangle;connectable=0;fillColor=none;top=0;left=0;bottom=0;right=0;align=left;spacingLeft=6;fontStyle=5;overflow=hidden;whiteSpace=wrap;html=1;" vertex="1" parent="-vHnxcomdBp00i1czS1j-116">
          <mxGeometry x="30" width="240" height="40" as="geometry">
            <mxRectangle width="240" height="40" as="alternateBounds" />
          </mxGeometry>
        </mxCell>
        <mxCell id="-vHnxcomdBp00i1czS1j-119" value="" style="shape=tableRow;horizontal=0;startSize=0;swimlaneHead=0;swimlaneBody=0;fillColor=none;collapsible=0;dropTarget=0;points=[[0,0.5],[1,0.5]];portConstraint=eastwest;top=0;left=0;right=0;bottom=0;" vertex="1" parent="-vHnxcomdBp00i1czS1j-115">
          <mxGeometry y="60" width="270" height="30" as="geometry" />
        </mxCell>
        <mxCell id="-vHnxcomdBp00i1czS1j-120" value="" style="shape=partialRectangle;connectable=0;fillColor=none;top=0;left=0;bottom=0;right=0;editable=1;overflow=hidden;whiteSpace=wrap;html=1;" vertex="1" parent="-vHnxcomdBp00i1czS1j-119">
          <mxGeometry width="30" height="30" as="geometry">
            <mxRectangle width="30" height="30" as="alternateBounds" />
          </mxGeometry>
        </mxCell>
        <mxCell id="-vHnxcomdBp00i1czS1j-121" value="name_type&lt;span style=&quot;white-space: pre;&quot;&gt;&#x9;&lt;/span&gt;VARCHAR(500)" style="shape=partialRectangle;connectable=0;fillColor=none;top=0;left=0;bottom=0;right=0;align=left;spacingLeft=6;overflow=hidden;whiteSpace=wrap;html=1;" vertex="1" parent="-vHnxcomdBp00i1czS1j-119">
          <mxGeometry x="30" width="240" height="30" as="geometry">
            <mxRectangle width="240" height="30" as="alternateBounds" />
          </mxGeometry>
        </mxCell>
        <mxCell id="-vHnxcomdBp00i1czS1j-122" value="" style="shape=tableRow;horizontal=0;startSize=0;swimlaneHead=0;swimlaneBody=0;fillColor=none;collapsible=0;dropTarget=0;points=[[0,0.5],[1,0.5]];portConstraint=eastwest;top=0;left=0;right=0;bottom=0;" vertex="1" parent="-vHnxcomdBp00i1czS1j-115">
          <mxGeometry y="90" width="270" height="30" as="geometry" />
        </mxCell>
        <mxCell id="-vHnxcomdBp00i1czS1j-123" value="FK1" style="shape=partialRectangle;connectable=0;fillColor=none;top=0;left=0;bottom=0;right=0;editable=1;overflow=hidden;whiteSpace=wrap;html=1;" vertex="1" parent="-vHnxcomdBp00i1czS1j-122">
          <mxGeometry width="30" height="30" as="geometry">
            <mxRectangle width="30" height="30" as="alternateBounds" />
          </mxGeometry>
        </mxCell>
        <mxCell id="-vHnxcomdBp00i1czS1j-124" value="title&lt;span style=&quot;white-space: pre;&quot;&gt;&#x9;&lt;/span&gt;&lt;span style=&quot;white-space: pre;&quot;&gt;&#x9;&lt;/span&gt;VARCHAR(500)" style="shape=partialRectangle;connectable=0;fillColor=none;top=0;left=0;bottom=0;right=0;align=left;spacingLeft=6;overflow=hidden;whiteSpace=wrap;html=1;" vertex="1" parent="-vHnxcomdBp00i1czS1j-122">
          <mxGeometry x="30" width="240" height="30" as="geometry">
            <mxRectangle width="240" height="30" as="alternateBounds" />
          </mxGeometry>
        </mxCell>
        <mxCell id="-vHnxcomdBp00i1czS1j-125" value="" style="shape=tableRow;horizontal=0;startSize=0;swimlaneHead=0;swimlaneBody=0;fillColor=none;collapsible=0;dropTarget=0;points=[[0,0.5],[1,0.5]];portConstraint=eastwest;top=0;left=0;right=0;bottom=0;" vertex="1" parent="-vHnxcomdBp00i1czS1j-115">
          <mxGeometry y="120" width="270" height="30" as="geometry" />
        </mxCell>
        <mxCell id="-vHnxcomdBp00i1czS1j-126" value="" style="shape=partialRectangle;connectable=0;fillColor=none;top=0;left=0;bottom=0;right=0;editable=1;overflow=hidden;whiteSpace=wrap;html=1;" vertex="1" parent="-vHnxcomdBp00i1czS1j-125">
          <mxGeometry width="30" height="30" as="geometry">
            <mxRectangle width="30" height="30" as="alternateBounds" />
          </mxGeometry>
        </mxCell>
        <mxCell id="-vHnxcomdBp00i1czS1j-127" value="image&amp;nbsp;&lt;span style=&quot;border-color: var(--border-color);&quot;&gt;&lt;span style=&quot;white-space: pre;&quot;&gt;&amp;nbsp;&amp;nbsp;&amp;nbsp;&amp;nbsp;&lt;/span&gt;&lt;/span&gt;VARCHAR(1000)" style="shape=partialRectangle;connectable=0;fillColor=none;top=0;left=0;bottom=0;right=0;align=left;spacingLeft=6;overflow=hidden;whiteSpace=wrap;html=1;" vertex="1" parent="-vHnxcomdBp00i1czS1j-125">
          <mxGeometry x="30" width="240" height="30" as="geometry">
            <mxRectangle width="240" height="30" as="alternateBounds" />
          </mxGeometry>
        </mxCell>
        <mxCell id="-vHnxcomdBp00i1czS1j-128" value="" style="shape=tableRow;horizontal=0;startSize=0;swimlaneHead=0;swimlaneBody=0;fillColor=none;collapsible=0;dropTarget=0;points=[[0,0.5],[1,0.5]];portConstraint=eastwest;top=0;left=0;right=0;bottom=0;" vertex="1" parent="-vHnxcomdBp00i1czS1j-115">
          <mxGeometry y="150" width="270" height="40" as="geometry" />
        </mxCell>
        <mxCell id="-vHnxcomdBp00i1czS1j-129" value="" style="shape=partialRectangle;connectable=0;fillColor=none;top=0;left=0;bottom=0;right=0;editable=1;overflow=hidden;whiteSpace=wrap;html=1;" vertex="1" parent="-vHnxcomdBp00i1czS1j-128">
          <mxGeometry width="30" height="40" as="geometry">
            <mxRectangle width="30" height="40" as="alternateBounds" />
          </mxGeometry>
        </mxCell>
        <mxCell id="-vHnxcomdBp00i1czS1j-130" value="description&lt;span style=&quot;white-space: pre;&quot;&gt;&#x9;&lt;/span&gt;TEXT" style="shape=partialRectangle;connectable=0;fillColor=none;top=0;left=0;bottom=0;right=0;align=left;spacingLeft=6;overflow=hidden;whiteSpace=wrap;html=1;" vertex="1" parent="-vHnxcomdBp00i1czS1j-128">
          <mxGeometry x="30" width="240" height="40" as="geometry">
            <mxRectangle width="240" height="40" as="alternateBounds" />
          </mxGeometry>
        </mxCell>
        <mxCell id="-vHnxcomdBp00i1czS1j-131" value="" style="shape=tableRow;horizontal=0;startSize=0;swimlaneHead=0;swimlaneBody=0;fillColor=none;collapsible=0;dropTarget=0;points=[[0,0.5],[1,0.5]];portConstraint=eastwest;top=0;left=0;right=0;bottom=0;" vertex="1" parent="-vHnxcomdBp00i1czS1j-115">
          <mxGeometry y="190" width="270" height="30" as="geometry" />
        </mxCell>
        <mxCell id="-vHnxcomdBp00i1czS1j-132" value="" style="shape=partialRectangle;connectable=0;fillColor=none;top=0;left=0;bottom=0;right=0;editable=1;overflow=hidden;whiteSpace=wrap;html=1;" vertex="1" parent="-vHnxcomdBp00i1czS1j-131">
          <mxGeometry width="30" height="30" as="geometry">
            <mxRectangle width="30" height="30" as="alternateBounds" />
          </mxGeometry>
        </mxCell>
        <mxCell id="-vHnxcomdBp00i1czS1j-133" value="name_author&lt;span style=&quot;white-space: pre;&quot;&gt;&#x9;&lt;/span&gt;&lt;span style=&quot;white-space: pre;&quot;&gt;&#x9;&lt;/span&gt;VARCHAR(500)" style="shape=partialRectangle;connectable=0;fillColor=none;top=0;left=0;bottom=0;right=0;align=left;spacingLeft=6;overflow=hidden;whiteSpace=wrap;html=1;" vertex="1" parent="-vHnxcomdBp00i1czS1j-131">
          <mxGeometry x="30" width="240" height="30" as="geometry">
            <mxRectangle width="240" height="30" as="alternateBounds" />
          </mxGeometry>
        </mxCell>
        <mxCell id="-vHnxcomdBp00i1czS1j-134" value="" style="shape=tableRow;horizontal=0;startSize=0;swimlaneHead=0;swimlaneBody=0;fillColor=none;collapsible=0;dropTarget=0;points=[[0,0.5],[1,0.5]];portConstraint=eastwest;top=0;left=0;right=0;bottom=0;" vertex="1" parent="-vHnxcomdBp00i1czS1j-115">
          <mxGeometry y="220" width="270" height="30" as="geometry" />
        </mxCell>
        <mxCell id="-vHnxcomdBp00i1czS1j-135" value="" style="shape=partialRectangle;connectable=0;fillColor=none;top=0;left=0;bottom=0;right=0;editable=1;overflow=hidden;whiteSpace=wrap;html=1;" vertex="1" parent="-vHnxcomdBp00i1czS1j-134">
          <mxGeometry width="30" height="30" as="geometry">
            <mxRectangle width="30" height="30" as="alternateBounds" />
          </mxGeometry>
        </mxCell>
        <mxCell id="-vHnxcomdBp00i1czS1j-136" value="day_up&lt;span style=&quot;white-space: pre;&quot;&gt;&#x9;&lt;/span&gt;&lt;span style=&quot;white-space: pre;&quot;&gt;&#x9;&lt;/span&gt;TIMESTAMP" style="shape=partialRectangle;connectable=0;fillColor=none;top=0;left=0;bottom=0;right=0;align=left;spacingLeft=6;overflow=hidden;whiteSpace=wrap;html=1;" vertex="1" parent="-vHnxcomdBp00i1czS1j-134">
          <mxGeometry x="30" width="240" height="30" as="geometry">
            <mxRectangle width="240" height="30" as="alternateBounds" />
          </mxGeometry>
        </mxCell>
        <mxCell id="-vHnxcomdBp00i1czS1j-137" value="" style="shape=tableRow;horizontal=0;startSize=0;swimlaneHead=0;swimlaneBody=0;fillColor=none;collapsible=0;dropTarget=0;points=[[0,0.5],[1,0.5]];portConstraint=eastwest;top=0;left=0;right=0;bottom=0;" vertex="1" parent="-vHnxcomdBp00i1czS1j-115">
          <mxGeometry y="250" width="270" height="30" as="geometry" />
        </mxCell>
        <mxCell id="-vHnxcomdBp00i1czS1j-138" value="" style="shape=partialRectangle;connectable=0;fillColor=none;top=0;left=0;bottom=0;right=0;editable=1;overflow=hidden;whiteSpace=wrap;html=1;" vertex="1" parent="-vHnxcomdBp00i1czS1j-137">
          <mxGeometry width="30" height="30" as="geometry">
            <mxRectangle width="30" height="30" as="alternateBounds" />
          </mxGeometry>
        </mxCell>
        <mxCell id="-vHnxcomdBp00i1czS1j-139" value="content&lt;span style=&quot;white-space: pre;&quot;&gt;&#x9;&lt;/span&gt;&lt;span style=&quot;white-space: pre;&quot;&gt;&#x9;&lt;/span&gt;TEXT" style="shape=partialRectangle;connectable=0;fillColor=none;top=0;left=0;bottom=0;right=0;align=left;spacingLeft=6;overflow=hidden;whiteSpace=wrap;html=1;" vertex="1" parent="-vHnxcomdBp00i1czS1j-137">
          <mxGeometry x="30" width="240" height="30" as="geometry">
            <mxRectangle width="240" height="30" as="alternateBounds" />
          </mxGeometry>
        </mxCell>
      </root>
    </mxGraphModel>
  </diagram>
  <diagram id="Jpk-nJxcWyqjfeAi_raw" name="Trang-5">
    <mxGraphModel grid="1" page="1" gridSize="10" guides="1" tooltips="1" connect="1" arrows="1" fold="1" pageScale="1" pageWidth="827" pageHeight="1169" math="0" shadow="0">
      <root>
        <mxCell id="0" />
        <mxCell id="1" parent="0" />
        <mxCell id="3rHzKan-Su-lJ0dYGgM_-1" value="" style="rounded=1;whiteSpace=wrap;html=1;" vertex="1" parent="1">
          <mxGeometry x="350" y="240" width="120" height="60" as="geometry" />
        </mxCell>
      </root>
    </mxGraphModel>
  </diagram>
</mxfile>
